<svg id="icon" xmlns="http://www.w3.org/2000/svg" viewBox="0 0 240.87 240.87">
	<defs>
		<style>
			.cls-1{fill:#fff;}.cls-2{fill:#006838;}.cls-3{fill:none;stroke:#006838;stroke-miterlimit:10;stroke-width:2px;}

			#small-dots-1, #small-dots-2, #small-dots-3, #small-dots-4 {display: none; }

			@media screen and (min-width: 600px) {
				#small-dots-1, #small-dots-2, #small-dots-3, #small-dots-4 {display: block;}
			}

			#icon:hover #bckgrnd { fill: #c2edbd; }

		</style>
	</defs>
	<title>Butterfly 4</title>
	<g id="Layer_2" data-name="Layer 2">
		<g id="butterfly-cyan">
			<circle id="bckgrnd" class="cls-1" cx="120.43" cy="120.43" r="120.43"/>
			<ellipse id="body" class="cls-2" cx="120.73" cy="126.17" rx="6.33" ry="44.34"/><g id="sensors">
			<path id="rt-sensor" class="cls-3" d="M122.89,76.86c-1.37-11.36,7.81-28.61,13.83-26.58s3.71,10.87,0,9.81"/>
			<path id="lf-sensor" class="cls-3" d="M118.56,76.86c1.37-11.36-7.81-28.61-13.82-26.58s-3.72,10.87,0,9.81"/>
		</g>
		<g id="rt-wing">
			<path id="wing-rt-black" class="cls-2" d="M134.25,90.88C137.64,75.14,159.18,56.5,170.5,52s42.06-3.21,45.24,32.13c3.17,35.16-51.13,50.22-55.65,51.12s41.17,24.89,20.36,46.15-36.88,1.93-44.34-14S130.22,109.58,134.25,90.88Z"/>
			<g id="bottom-wing">
			<ellipse class="cls-1" cx="159.21" cy="162.01" rx="9.48" ry="16.83" transform="translate(-56.69 91.43) rotate(-27.4)"/>
			<g id="small-dots-1">
				<circle class="cls-2" cx="161.52" cy="172.71" r="1.31"/><circle class="cls-2" cx="166.09" cy="172.02" r="1.31"/><circle class="cls-2" cx="154.46" cy="164.65" r="1.39"/><circle class="cls-2" cx="165.21" cy="161.87" r="1.31"/><circle class="cls-2" cx="157.7" cy="169.12" r="1.39"/><circle class="cls-2" cx="166.9" cy="166.94" r="1.31"/><circle class="cls-2" cx="162.92" cy="157.62" r="1.39"/><circle class="cls-2" cx="152.01" cy="159.31" r="1.39"/><circle class="cls-2" cx="152.01" cy="154.31" r="1.39"/><circle class="cls-2" cx="155.9" cy="151.24" r="1.39"/><circle class="cls-2" cx="159.99" cy="153.75" r="1.39"/>
			</g>
		</g>
		<g id="top-wing">
			<ellipse id="large-white-ellipse" class="cls-1" cx="173.26" cy="91.83" rx="33.24" ry="21.91" transform="translate(-14.19 149.41) rotate(-45)"/>
			<g id="small-dots-2" data-name="small-dots">
				<circle class="cls-2" cx="176.8" cy="74.09" r="1.84"/><circle class="cls-2" cx="182.06" cy="72.72" r="1.84"/><circle class="cls-2" cx="187.32" cy="72.72" r="1.84"/><circle class="cls-2" cx="191.54" cy="75.93" r="1.84"/><circle class="cls-2" cx="192.38" cy="81.46" r="1.84"/><circle class="cls-2" cx="191.01" cy="86.74" r="1.84"/><circle class="cls-2" cx="188.96" cy="92.02" r="1.84"/><circle class="cls-2" cx="186.01" cy="96.58" r="1.84"/><circle class="cls-2" cx="182.35" cy="100.92" r="1.84"/><circle class="cls-2" cx="177.99" cy="104.46" r="1.84"/><circle class="cls-2" cx="173.37" cy="107.71" r="1.84"/><circle class="cls-2" cx="168.47" cy="109.55" r="1.84"/><circle class="cls-2" cx="163.37" cy="111.17" r="1.84"/><circle class="cls-2" cx="158.15" cy="110.34" r="1.84"/><circle class="cls-2" cx="154.46" cy="106.9" r="1.84"/><circle class="cls-2" cx="154.46" cy="101.74" r="1.84"/><circle class="cls-2" cx="155.22" cy="96.58" r="1.84"/><circle class="cls-2" cx="157.07" cy="91.43" r="1.84"/><circle class="cls-2" cx="160.43" cy="87.08" r="1.84"/><circle class="cls-2" cx="163.37" cy="82.73" r="1.84"/><circle class="cls-2" cx="167.6" cy="79.62" r="1.84"/><circle class="cls-2" cx="172.2" cy="76.41" r="1.84"/>
			</g>
		</g>
	</g>
	<g id="lt-wing">
		<path id="wing-rt-black-2" data-name="wing-rt-black" class="cls-2" d="M106.62,90.88C103.22,75.14,81.69,56.5,70.37,52S28.31,48.76,25.13,84.1C22,119.26,76.26,134.32,80.78,135.22s-41.17,24.89-20.36,46.15,36.88,1.93,44.34-14S110.65,109.58,106.62,90.88Z"/>
		<g id="bottom-wing-2" data-name="bottom-wing">
			<ellipse class="cls-1" cx="81.66" cy="162.01" rx="16.83" ry="9.48" transform="translate(-99.76 159.96) rotate(-62.6)"/>
			<g id="small-dots-3" data-name="small-dots">
				<circle class="cls-2" cx="79.34" cy="172.71" r="1.31"/><circle class="cls-2" cx="74.78" cy="172.02" r="1.31"/><circle class="cls-2" cx="86.41" cy="164.65" r="1.39"/><circle class="cls-2" cx="75.66" cy="161.87" r="1.31"/><circle class="cls-2" cx="83.17" cy="169.12" r="1.39"/><circle class="cls-2" cx="73.97" cy="166.94" r="1.31"/><circle class="cls-2" cx="77.95" cy="157.62" r="1.39"/><circle class="cls-2" cx="88.86" cy="159.31" r="1.39"/><circle class="cls-2" cx="88.86" cy="154.31" r="1.39"/><circle class="cls-2" cx="84.97" cy="151.24" r="1.39"/><circle class="cls-2" cx="80.88" cy="153.75" r="1.39"/>
		</g>
	</g>
	<g id="top-wing-2" data-name="top-wing">
		<ellipse id="large-white-ellipse-2" data-name="large-white-ellipse" class="cls-1" cx="67.61" cy="91.83" rx="21.91" ry="33.24" transform="translate(-45.13 74.7) rotate(-45)"/>
		<g id="small-dots-4" data-name="small-dots">
			<circle class="cls-2" cx="64.07" cy="74.09" r="1.84"/><circle class="cls-2" cx="58.81" cy="72.72" r="1.84"/><circle class="cls-2" cx="53.55" cy="72.72" r="1.84"/><circle class="cls-2" cx="49.33" cy="75.93" r="1.84"/><circle class="cls-2" cx="48.49" cy="81.46" r="1.84"/><circle class="cls-2" cx="49.86" cy="86.74" r="1.84"/><circle class="cls-2" cx="51.91" cy="92.02" r="1.84"/><circle class="cls-2" cx="54.86" cy="96.58" r="1.84"/><circle class="cls-2" cx="58.52" cy="100.92" r="1.84"/><circle class="cls-2" cx="62.87" cy="104.46" r="1.84"/><circle class="cls-2" cx="67.5" cy="107.71" r="1.84"/><circle class="cls-2" cx="72.4" cy="109.55" r="1.84"/><circle class="cls-2" cx="77.5" cy="111.17" r="1.84"/><circle class="cls-2" cx="82.72" cy="110.34" r="1.84"/><circle class="cls-2" cx="86.41" cy="106.9" r="1.84"/><circle class="cls-2" cx="86.41" cy="101.74" r="1.84"/><circle class="cls-2" cx="85.64" cy="96.58" r="1.84"/><circle class="cls-2" cx="83.8" cy="91.43" r="1.84"/><circle class="cls-2" cx="80.44" cy="87.08" r="1.84"/><circle class="cls-2" cx="77.5" cy="82.73" r="1.84"/><circle class="cls-2" cx="73.27" cy="79.62" r="1.84"/><circle class="cls-2" cx="68.67" cy="76.41" r="1.84"/>
	</g>
</g>
</g>
</g>
</g>
</svg>