<svg xmlns="http://www.w3.org/2000/svg" viewBox="0 0 240.87 240.87"><defs><style>.cls-1{fill:#fff;}.cls-2{fill:#231f20;}.cls-3{fill:none;stroke:#231f20;stroke-miterlimit:10;stroke-width:2px;}</style></defs><title>Asset 1</title><g id="Layer_2" data-name="Layer 2"><g id="butterfly-black"><circle id="bckgrnd" class="cls-1" cx="120.43" cy="120.43" r="120.43"/><ellipse id="body" class="cls-2" cx="119.73" cy="129.56" rx="6.33" ry="44.34"/><g id="sensors"><path id="rt-sensor" class="cls-3" d="M121.89,80.24c-1.37-11.36,7.81-28.61,13.83-26.58s3.71,10.87,0,9.82"/><path id="lf-sensor" class="cls-3" d="M117.56,80.24c1.37-11.36-7.81-28.61-13.82-26.58s-3.72,10.87,0,9.82"/></g><g id="rt-wing"><path id="wing-rt-black" class="cls-2" d="M133.25,94.26c3.39-15.73,24.93-34.38,36.25-38.91s42.06-3.21,45.24,32.13c3.17,35.16-51.13,50.22-55.65,51.12s41.17,24.89,20.36,46.15-36.88,1.93-44.34-14S129.22,113,133.25,94.26Z"/><g id="bottom-wing"><ellipse class="cls-1" cx="158.21" cy="165.39" rx="9.48" ry="16.83" transform="translate(-58.36 91.35) rotate(-27.4)"/><g id="small-dots"><circle class="cls-2" cx="160.52" cy="176.1" r="1.31"/><circle class="cls-2" cx="165.09" cy="175.4" r="1.31"/><circle class="cls-2" cx="153.46" cy="168.03" r="1.39"/><circle class="cls-2" cx="164.21" cy="165.25" r="1.31"/><circle class="cls-2" cx="156.7" cy="172.5" r="1.39"/><circle class="cls-2" cx="165.9" cy="170.33" r="1.31"/><circle class="cls-2" cx="161.92" cy="161" r="1.39"/><circle class="cls-2" cx="151.01" cy="162.69" r="1.39"/><circle class="cls-2" cx="151.01" cy="157.69" r="1.39"/><circle class="cls-2" cx="154.9" cy="154.62" r="1.39"/><circle class="cls-2" cx="158.99" cy="157.14" r="1.39"/></g></g><g id="top-wing"><ellipse id="large-white-ellipse" class="cls-1" cx="172.26" cy="95.21" rx="33.24" ry="21.91" transform="translate(-16.87 149.69) rotate(-45)"/><g id="small-dots-2" data-name="small-dots"><circle class="cls-2" cx="175.8" cy="77.47" r="1.84"/><circle class="cls-2" cx="181.06" cy="76.1" r="1.84"/><circle class="cls-2" cx="186.32" cy="76.1" r="1.84"/><circle class="cls-2" cx="190.54" cy="79.31" r="1.84"/><circle class="cls-2" cx="191.38" cy="84.85" r="1.84"/><circle class="cls-2" cx="190.01" cy="90.12" r="1.84"/><circle class="cls-2" cx="187.96" cy="95.4" r="1.84"/><circle class="cls-2" cx="185.01" cy="99.97" r="1.84"/><circle class="cls-2" cx="181.35" cy="104.3" r="1.84"/><circle class="cls-2" cx="176.99" cy="107.84" r="1.84"/><circle class="cls-2" cx="172.37" cy="111.09" r="1.84"/><circle class="cls-2" cx="167.47" cy="112.93" r="1.84"/><circle class="cls-2" cx="162.37" cy="114.55" r="1.84"/><circle class="cls-2" cx="157.15" cy="113.72" r="1.84"/><circle class="cls-2" cx="153.46" cy="110.28" r="1.84"/><circle class="cls-2" cx="153.46" cy="105.12" r="1.84"/><circle class="cls-2" cx="154.22" cy="99.97" r="1.84"/><circle class="cls-2" cx="156.07" cy="94.81" r="1.84"/><circle class="cls-2" cx="159.43" cy="90.46" r="1.84"/><circle class="cls-2" cx="162.37" cy="86.12" r="1.84"/><circle class="cls-2" cx="166.6" cy="83" r="1.84"/><circle class="cls-2" cx="171.2" cy="79.79" r="1.84"/></g></g></g><g id="lt-wing"><path id="wing-rt-black-2" data-name="wing-rt-black" class="cls-2" d="M105.62,94.26c-3.4-15.73-24.93-34.38-36.25-38.91S27.31,52.14,24.13,87.48C21,122.64,75.26,137.7,79.78,138.6s-41.17,24.89-20.36,46.15,36.88,1.93,44.34-14S109.65,113,105.62,94.26Z"/><g id="bottom-wing-2" data-name="bottom-wing"><ellipse class="cls-1" cx="80.66" cy="165.39" rx="16.83" ry="9.48" transform="translate(-103.3 160.9) rotate(-62.6)"/><g id="small-dots-3" data-name="small-dots"><circle class="cls-2" cx="78.34" cy="176.1" r="1.31"/><circle class="cls-2" cx="73.78" cy="175.4" r="1.31"/><circle class="cls-2" cx="85.41" cy="168.03" r="1.39"/><circle class="cls-2" cx="74.66" cy="165.25" r="1.31"/><circle class="cls-2" cx="82.17" cy="172.5" r="1.39"/><circle class="cls-2" cx="72.97" cy="170.33" r="1.31"/><circle class="cls-2" cx="76.95" cy="161" r="1.39"/><circle class="cls-2" cx="87.86" cy="162.69" r="1.39"/><circle class="cls-2" cx="87.86" cy="157.69" r="1.39"/><circle class="cls-2" cx="83.97" cy="154.62" r="1.39"/><circle class="cls-2" cx="79.88" cy="157.14" r="1.39"/></g></g><g id="top-wing-2" data-name="top-wing"><ellipse id="large-white-ellipse-2" data-name="large-white-ellipse" class="cls-1" cx="66.61" cy="95.21" rx="21.91" ry="33.24" transform="translate(-47.81 74.99) rotate(-45)"/><g id="small-dots-4" data-name="small-dots"><circle class="cls-2" cx="63.07" cy="77.47" r="1.84"/><circle class="cls-2" cx="57.81" cy="76.1" r="1.84"/><circle class="cls-2" cx="52.55" cy="76.1" r="1.84"/><circle class="cls-2" cx="48.33" cy="79.31" r="1.84"/><circle class="cls-2" cx="47.49" cy="84.85" r="1.84"/><circle class="cls-2" cx="48.86" cy="90.12" r="1.84"/><circle class="cls-2" cx="50.91" cy="95.4" r="1.84"/><circle class="cls-2" cx="53.86" cy="99.97" r="1.84"/><circle class="cls-2" cx="57.52" cy="104.3" r="1.84"/><circle class="cls-2" cx="61.87" cy="107.84" r="1.84"/><circle class="cls-2" cx="66.5" cy="111.09" r="1.84"/><circle class="cls-2" cx="71.4" cy="112.93" r="1.84"/><circle class="cls-2" cx="76.5" cy="114.55" r="1.84"/><circle class="cls-2" cx="81.72" cy="113.72" r="1.84"/><circle class="cls-2" cx="85.41" cy="110.28" r="1.84"/><circle class="cls-2" cx="85.41" cy="105.12" r="1.84"/><circle class="cls-2" cx="84.64" cy="99.97" r="1.84"/><circle class="cls-2" cx="82.8" cy="94.81" r="1.84"/><circle class="cls-2" cx="79.44" cy="90.46" r="1.84"/><circle class="cls-2" cx="76.5" cy="86.12" r="1.84"/><circle class="cls-2" cx="72.27" cy="83" r="1.84"/><circle class="cls-2" cx="67.67" cy="79.79" r="1.84"/></g></g></g></g></g></svg>