<svg id="butterfly" xmlns="http://www.w3.org/2000/svg" viewBox="0 0 581.67 429.59"><defs><style>.b-cls-1{fill:#a53768;}.b-cls-2{fill:none;stroke:#a53768;stroke-miterlimit:10;stroke-width:2px;}.b-cls-3{fill:#fff;}</style></defs><title>butterfly-icon</title><ellipse id="body" class="b-cls-1" cx="291.72" cy="232.79" rx="19.3" ry="135.12"/><g id="sensors"><path id="rt-sensor" class="b-cls-2" d="M298.31,82.51c-4.16-34.62,23.8-87.19,42.14-81s11.32,33.13.07,29.92"/><path id="lf-sensor" class="b-cls-2" d="M285.13,82.51C289.3,47.89,261.34-4.68,243,1.5s-11.31,33.13-.07,29.92"/></g><g id="rt-wing"><path id="wing-rt-black" class="b-cls-1" d="M332.94,125.24c10.34-48,76-104.79,110.45-118.57s128.18-9.78,137.88,97.89c9.65,107.14-155.81,153.05-169.59,155.8s125.47,75.84,62,140.64-112.39,5.86-135.12-42.74S320.65,182.2,332.94,125.24Z"/><g id="bottom-wing"><ellipse class="b-cls-3" cx="409.01" cy="341.99" rx="28.88" ry="51.3" transform="translate(-111.49 226.56) rotate(-27.4)"/><g id="small-dots"><circle class="b-cls-1" cx="416.05" cy="374.61" r="4"/><circle class="b-cls-1" cx="429.97" cy="372.5" r="4"/><circle class="b-cls-1" cx="394.53" cy="350.03" r="4.25"/><circle class="b-cls-1" cx="427.29" cy="341.57" r="4"/><circle class="b-cls-1" cx="404.4" cy="363.66" r="4.25"/><circle class="b-cls-1" cx="432.44" cy="357.03" r="4"/><circle class="b-cls-1" cx="420.3" cy="328.61" r="4.25"/><circle class="b-cls-1" cx="387.07" cy="333.77" r="4.25"/><circle class="b-cls-1" cx="387.07" cy="318.52" r="4.25"/><circle class="b-cls-1" cx="398.92" cy="309.18" r="4.25"/><circle class="b-cls-1" cx="411.39" cy="316.84" r="4.25"/></g></g><g id="top-wing"><ellipse id="large-white-ellipse" class="b-cls-3" cx="451.81" cy="128.13" rx="101.29" ry="66.77" transform="translate(41.73 357.01) rotate(-45)"/><g id="small-dots-2" data-name="small-dots"><circle class="b-cls-1" cx="462.6" cy="74.06" r="5.62"/><circle class="b-cls-1" cx="478.63" cy="69.91" r="5.62"/><circle class="b-cls-1" cx="494.66" cy="69.91" r="5.62"/><circle class="b-cls-1" cx="507.53" cy="79.68" r="5.62"/><circle class="b-cls-1" cx="510.08" cy="96.54" r="5.62"/><circle class="b-cls-1" cx="505.9" cy="112.63" r="5.62"/><circle class="b-cls-1" cx="499.65" cy="128.72" r="5.62"/><circle class="b-cls-1" cx="490.67" cy="142.62" r="5.62"/><circle class="b-cls-1" cx="479.53" cy="155.84" r="5.62"/><circle class="b-cls-1" cx="466.24" cy="166.62" r="5.62"/><circle class="b-cls-1" cx="452.16" cy="176.51" r="5.62"/><circle class="b-cls-1" cx="437.23" cy="182.13" r="5.62"/><circle class="b-cls-1" cx="421.67" cy="187.06" r="5.62"/><circle class="b-cls-1" cx="405.77" cy="184.53" r="5.62"/><circle class="b-cls-1" cx="394.53" cy="174.05" r="5.62"/><circle class="b-cls-1" cx="394.53" cy="158.33" r="5.62"/><circle class="b-cls-1" cx="396.85" cy="142.62" r="5.62"/><circle class="b-cls-1" cx="402.47" cy="126.9" r="5.62"/><circle class="b-cls-1" cx="412.71" cy="113.66" r="5.62"/><circle class="b-cls-1" cx="421.67" cy="100.41" r="5.62"/><circle class="b-cls-1" cx="434.56" cy="90.92" r="5.62"/><circle class="b-cls-1" cx="448.58" cy="81.14" r="5.62"/></g></g></g><g id="lt-wing"><path id="wing-rt-black-2" data-name="wing-rt-black" class="b-cls-1" d="M248.73,125.24c-10.34-48-76-104.79-110.45-118.57S10.11-3.11.41,104.56C-9.25,211.7,156.21,257.61,170,260.36S44.53,336.2,108,401s112.39,5.86,135.12-42.74S261,182.2,248.73,125.24Z"/><g id="bottom-wing-2" data-name="bottom-wing"><ellipse class="b-cls-3" cx="172.66" cy="341.99" rx="51.3" ry="28.88" transform="translate(-210.42 337.92) rotate(-62.6)"/><g id="small-dots-3" data-name="small-dots"><circle class="b-cls-1" cx="165.62" cy="374.61" r="4"/><circle class="b-cls-1" cx="151.7" cy="372.5" r="4"/><circle class="b-cls-1" cx="187.15" cy="350.03" r="4.25"/><circle class="b-cls-1" cx="154.38" cy="341.57" r="4"/><circle class="b-cls-1" cx="177.27" cy="363.66" r="4.25"/><circle class="b-cls-1" cx="149.23" cy="357.03" r="4"/><circle class="b-cls-1" cx="161.37" cy="328.61" r="4.25"/><circle class="b-cls-1" cx="194.6" cy="333.77" r="4.25"/><circle class="b-cls-1" cx="194.6" cy="318.52" r="4.25"/><circle class="b-cls-1" cx="182.75" cy="309.18" r="4.25"/><circle class="b-cls-1" cx="170.29" cy="316.84" r="4.25"/></g></g><g id="top-wing-2" data-name="top-wing"><ellipse id="large-white-ellipse-2" data-name="large-white-ellipse" class="b-cls-3" cx="129.86" cy="128.13" rx="66.77" ry="101.29" transform="translate(-52.56 129.35) rotate(-45)"/><g id="small-dots-4" data-name="small-dots"><circle class="b-cls-1" cx="119.07" cy="74.06" r="5.62"/><circle class="b-cls-1" cx="103.04" cy="69.91" r="5.62"/><circle class="b-cls-1" cx="87.01" cy="69.91" r="5.62"/><circle class="b-cls-1" cx="74.14" cy="79.68" r="5.62"/><circle class="b-cls-1" cx="71.59" cy="96.54" r="5.62"/><circle class="b-cls-1" cx="75.77" cy="112.63" r="5.62"/><circle class="b-cls-1" cx="82.02" cy="128.72" r="5.62"/><circle class="b-cls-1" cx="91" cy="142.62" r="5.62"/><circle class="b-cls-1" cx="102.15" cy="155.84" r="5.62"/><circle class="b-cls-1" cx="115.43" cy="166.62" r="5.62"/><circle class="b-cls-1" cx="129.52" cy="176.51" r="5.62"/><circle class="b-cls-1" cx="144.45" cy="182.13" r="5.62"/><circle class="b-cls-1" cx="160" cy="187.06" r="5.62"/><circle class="b-cls-1" cx="175.91" cy="184.53" r="5.62"/><circle class="b-cls-1" cx="187.15" cy="174.05" r="5.62"/><circle class="b-cls-1" cx="187.15" cy="158.33" r="5.62"/><circle class="b-cls-1" cx="184.82" cy="142.62" r="5.62"/><circle class="b-cls-1" cx="179.2" cy="126.9" r="5.62"/><circle class="b-cls-1" cx="168.96" cy="113.66" r="5.62"/><circle class="b-cls-1" cx="160" cy="100.41" r="5.62"/><circle class="b-cls-1" cx="147.11" cy="90.92" r="5.62"/><circle class="b-cls-1" cx="133.09" cy="81.14" r="5.62"/></g></g></g></svg>