<svg id="chrstmas-tree" xmlns="http://www.w3.org/2000/svg" viewBox="0 0 335.7 551.79"><defs><style>.ct-cls-1{fill:#754c29;}.ct-cls-2{fill:#006838;}.ct-cls-3{fill:none;stroke:#231f20;stroke-miterlimit:10;stroke-width:7px;}.ct-cls-4{font-size:18px;fill:#ed1c24;font-family:ArialMT, Arial;}</style></defs><title>christmas-tree</title><rect id="trunk" class="ct-cls-1" x="150.83" y="307.11" width="40.43" height="244.68"/><polygon id="christmas-tree-fill" class="ct-cls-2" points="167.85 7 94.06 134.82 130.95 134.82 56.53 241.15 107.8 241.15 6.64 388.64 329.06 388.64 227.9 241.15 279.17 241.15 208.83 133.19 241.65 134.82 167.85 7"/><polygon id="christmas-tree-stroke" class="ct-cls-3" points="167.85 7 94.06 134.82 130.95 134.82 56.53 241.15 107.8 241.15 6.64 388.64 329.06 388.64 227.9 241.15 279.17 241.15 208.83 133.19 241.65 134.82 167.85 7"/><text id="tiny-lights" class="ct-cls-4" transform="translate(146.65 114.82) rotate(180)">*<tspan x="7" y="0"> </tspan><tspan x="12" y="0"> </tspan></text><text class="ct-cls-4" transform="translate(130.31 116.88) rotate(-117.86)"> </text><text class="ct-cls-4" transform="translate(129.04 114.23) rotate(-60)">*</text><text class="ct-cls-4" transform="matrix(0.5, -0.87, 0.87, 0.5, 132.55, 108.15)"> </text><text class="ct-cls-4" transform="matrix(0.5, -0.87, 0.87, 0.5, 135.04, 103.83)"> </text><text class="ct-cls-4" transform="matrix(0.5, -0.87, 0.87, 0.5, 137.54, 99.5)"> </text><text class="ct-cls-4" transform="translate(140.04 95.17) rotate(-60)">*</text><text class="ct-cls-4" transform="translate(143.54 89.11) rotate(-60)"> </text><text class="ct-cls-4" transform="matrix(0.5, -0.87, 0.87, 0.5, 146.05, 84.76)"> </text><text class="ct-cls-4" transform="matrix(0.5, -0.87, 0.87, 0.5, 148.54, 80.44)"> </text><text class="ct-cls-4" transform="matrix(0.5, -0.87, 0.87, 0.5, 151.05, 76.11)">*</text><text class="ct-cls-4" transform="translate(154.55 70.04) rotate(-60)"> </text><text class="ct-cls-4" transform="translate(157.05 65.71) rotate(-60)"> </text><text class="ct-cls-4" transform="matrix(0.5, -0.87, 0.87, 0.5, 159.56, 61.37)"> </text><text class="ct-cls-4" transform="translate(162.06 57.04) rotate(-60)">*</text><text class="ct-cls-4" transform="translate(165.55 50.98) rotate(-60)"> </text><text class="ct-cls-4" transform="translate(167.5 46.39) rotate(60)"> </text><text class="ct-cls-4" transform="matrix(0.5, 0.87, -0.87, 0.5, 170, 50.72)"> <tspan x="4.99" y="0"> </tspan></text><text class="ct-cls-4" transform="translate(175 59.38) rotate(60)">*</text><text class="ct-cls-4" transform="translate(178.51 65.45) rotate(60)"> </text><text class="ct-cls-4" transform="matrix(0.5, 0.87, -0.87, 0.5, 181, 69.77)"> </text><text class="ct-cls-4" transform="matrix(0.5, 0.87, -0.87, 0.5, 183.5, 74.11)"> </text><text class="ct-cls-4" transform="translate(186.01 78.45) rotate(60)">*</text><text class="ct-cls-4" transform="translate(189.51 84.5) rotate(60)"> </text><text class="ct-cls-4" transform="translate(192.02 88.85) rotate(60)"> </text><text class="ct-cls-4" transform="translate(194.51 93.17) rotate(60)"> </text><text class="ct-cls-4" transform="matrix(0.5, 0.87, -0.87, 0.5, 197.02, 97.52)">*</text><text class="ct-cls-4" transform="translate(200.52 103.57) rotate(60)"> </text><text class="ct-cls-4" transform="translate(203.01 107.9) rotate(60)"> </text><text class="ct-cls-4" transform="translate(207.04 110.66) rotate(124.4)"> </text><text class="ct-cls-4" transform="translate(205.24 112.99) rotate(-177.17)"> </text><text class="ct-cls-4" transform="translate(200.27 112.74) rotate(-177.16)">*</text><text class="ct-cls-4" transform="translate(193.27 112.4) rotate(-177.16)"> </text><text class="ct-cls-4" transform="translate(188.27 112.15) rotate(-177.16)"> </text><text class="ct-cls-4" transform="translate(183.29 111.9) rotate(-177.17)"> </text><text class="ct-cls-4" transform="matrix(-1, -0.05, 0.05, -1, 177.59, 111.62)"> </text><text class="ct-cls-4" transform="translate(179.63 125.01) rotate(56.91)"> </text><text class="ct-cls-4" transform="translate(182.36 129.21) rotate(56.91)"> </text><text class="ct-cls-4" transform="matrix(0.55, 0.84, -0.84, 0.55, 185.09, 133.4)"> </text><text class="ct-cls-4" transform="matrix(0.55, 0.84, -0.84, 0.55, 187.82, 137.59)"> </text><text class="ct-cls-4" transform="matrix(0.55, 0.84, -0.84, 0.55, 190.55, 141.78)"> </text><text class="ct-cls-4" transform="translate(193.28 145.96) rotate(56.91)">*</text><text class="ct-cls-4" transform="translate(197.11 151.84) rotate(56.91)"> </text><text class="ct-cls-4" transform="matrix(0.55, 0.84, -0.84, 0.55, 199.84, 156.04)"> </text><text class="ct-cls-4" transform="matrix(0.55, 0.84, -0.84, 0.55, 202.57, 160.22)"> </text><text class="ct-cls-4" transform="matrix(0.55, 0.84, -0.84, 0.55, 205.3, 164.42)"> </text><text class="ct-cls-4" transform="translate(208.03 168.6) rotate(56.91)">*</text><text class="ct-cls-4" transform="translate(211.86 174.48) rotate(56.91)"> </text><text class="ct-cls-4" transform="translate(214.59 178.67) rotate(56.91)"> </text><text class="ct-cls-4" transform="matrix(0.55, 0.84, -0.84, 0.55, 217.31, 182.85)"> </text><text class="ct-cls-4" transform="translate(220.05 187.05) rotate(56.91)"> </text><text class="ct-cls-4" transform="matrix(0.55, 0.84, -0.84, 0.55, 222.78, 191.23)">*</text><text class="ct-cls-4" transform="translate(226.61 197.12) rotate(56.91)"> </text><text class="ct-cls-4" transform="matrix(0.55, 0.84, -0.84, 0.55, 229.34, 201.31)"> </text><text class="ct-cls-4" transform="translate(232.07 205.5) rotate(56.91)"> </text><text class="ct-cls-4" transform="matrix(0.55, 0.84, -0.84, 0.55, 234.8, 209.69)"> </text><text class="ct-cls-4" transform="matrix(0.55, 0.84, -0.84, 0.55, 237.53, 213.87)">*</text><text class="ct-cls-4" transform="translate(244.71 221.15) rotate(180)"> <tspan x="4.63" y="0"> </tspan><tspan x="9.63" y="0"> </tspan><tspan x="14.64" y="0"> </tspan><tspan x="19.64" y="0">*</tspan><tspan x="26.65" y="0"> </tspan><tspan x="31.65" y="0"> </tspan><tspan x="36.65" y="0"> </tspan><tspan x="41.66" y="0"> </tspan><tspan x="47.6" y="0">*</tspan></text><text class="ct-cls-4" transform="translate(199.79 235.52) rotate(55.55)"> </text><text class="ct-cls-4" transform="translate(202.62 239.65) rotate(55.55)"> </text><text class="ct-cls-4" transform="matrix(0.57, 0.82, -0.82, 0.57, 205.45, 243.77)"> </text><text class="ct-cls-4" transform="translate(208.28 247.9) rotate(55.56)"> </text><text class="ct-cls-4" transform="matrix(0.57, 0.82, -0.82, 0.57, 211.11, 252.03)"> </text><text class="ct-cls-4" transform="translate(213.93 256.14) rotate(55.55)"> </text><text class="ct-cls-4" transform="matrix(0.57, 0.82, -0.82, 0.57, 216.76, 260.27)"> </text><text class="ct-cls-4" transform="translate(219.59 264.4) rotate(55.55)">*</text><text class="ct-cls-4" transform="translate(223.56 270.18) rotate(55.55)"> </text><text class="ct-cls-4" transform="translate(226.38 274.29) rotate(55.56)"> </text><text class="ct-cls-4" transform="translate(229.23 278.44) rotate(55.55)"> </text><text class="ct-cls-4" transform="matrix(0.57, 0.82, -0.82, 0.57, 232.04, 282.55)"> </text><text class="ct-cls-4" transform="matrix(0.57, 0.82, -0.82, 0.57, 234.88, 286.69)">*</text><text class="ct-cls-4" transform="matrix(0.57, 0.82, -0.82, 0.57, 238.84, 292.45)"> </text><text class="ct-cls-4" transform="translate(241.67 296.58) rotate(55.55)"> </text><text class="ct-cls-4" transform="matrix(0.57, 0.82, -0.82, 0.57, 244.5, 300.7)"> </text><text class="ct-cls-4" transform="matrix(0.57, 0.82, -0.82, 0.57, 247.32, 304.83)"> </text><text class="ct-cls-4" transform="matrix(0.57, 0.82, -0.82, 0.57, 250.16, 308.96)">*</text><text class="ct-cls-4" transform="translate(254.12 314.73) rotate(55.55)"> </text><text class="ct-cls-4" transform="matrix(0.57, 0.82, -0.82, 0.57, 256.95, 318.87)"> </text><text class="ct-cls-4" transform="translate(259.79 323) rotate(55.55)"> </text><text class="ct-cls-4" transform="matrix(0.57, 0.82, -0.82, 0.57, 262.62, 327.12)"> </text><text class="ct-cls-4" transform="matrix(0.57, 0.82, -0.82, 0.57, 265.44, 331.24)">*</text><text class="ct-cls-4" transform="translate(269.4 337.02) rotate(55.55)"> </text><text class="ct-cls-4" transform="matrix(0.57, 0.82, -0.82, 0.57, 272.23, 341.14)"> </text><text class="ct-cls-4" transform="matrix(0.57, 0.82, -0.82, 0.57, 275.06, 345.27)"> </text><text class="ct-cls-4" transform="matrix(0.57, 0.82, -0.82, 0.57, 277.9, 349.4)"> </text><text class="ct-cls-4" transform="matrix(0.57, 0.82, -0.82, 0.57, 280.72, 353.52)"> </text><text class="ct-cls-4" transform="matrix(0.57, 0.82, -0.82, 0.57, 283.54, 357.64)">*</text><text class="ct-cls-4" transform="translate(287.52 363.43) rotate(55.55)"> </text><text class="ct-cls-4" transform="translate(293.39 368.64) rotate(180)"> <tspan x="4.86" y="0"> </tspan><tspan x="9.84" y="0"> </tspan><tspan x="14.85" y="0">*</tspan><tspan x="21.86" y="0"> </tspan><tspan x="26.85" y="0"> </tspan><tspan x="31.86" y="0"> </tspan><tspan x="36.86" y="0"> </tspan><tspan x="41.87" y="0">*</tspan><tspan x="48.86" y="0"> </tspan><tspan x="53.89" y="0"> </tspan><tspan x="58.87" y="0"> </tspan><tspan x="63.88" y="0">*</tspan><tspan x="70.88" y="0"> </tspan><tspan x="75.89" y="0"> </tspan><tspan x="80.89" y="0"> </tspan><tspan x="85.9" y="0"> </tspan><tspan x="90.88" y="0">*</tspan><tspan x="97.9" y="0"> </tspan><tspan x="102.9" y="0"> </tspan><tspan x="107.91" y="0"> </tspan><tspan x="112.92" y="0"> </tspan><tspan x="117.91" y="0">*</tspan><tspan x="124.93" y="0"> </tspan><tspan x="129.92" y="0"> </tspan><tspan x="134.93" y="0"> </tspan><tspan x="139.91" y="0"> </tspan><tspan x="144.93" y="0">*</tspan><tspan x="151.93" y="0"> </tspan><tspan x="156.94" y="0"> </tspan><tspan x="161.93" y="0"> </tspan><tspan x="166.93" y="0"> </tspan><tspan x="171.95" y="0">*</tspan><tspan x="178.94" y="0"> </tspan><tspan x="183.96" y="0"> </tspan><tspan x="188.95" y="0"> </tspan><tspan x="193.97" y="0"> </tspan><tspan x="198.95" y="0">*</tspan><tspan x="205.95" y="0"> </tspan><tspan x="210.96" y="0"> </tspan><tspan x="215.96" y="0"> </tspan><tspan x="220.97" y="0"> </tspan><tspan x="225.96" y="0">*</tspan><tspan x="232.98" y="0"> </tspan><tspan x="237.97" y="0"> </tspan><tspan x="242.98" y="0"> </tspan></text><text class="ct-cls-4" transform="translate(43.53 370.22) rotate(-55.55)"> </text><text class="ct-cls-4" transform="translate(46.35 366.1) rotate(-55.55)"> </text><text class="ct-cls-4" transform="translate(49.19 361.96) rotate(-55.55)">*</text><text class="ct-cls-4" transform="translate(53.15 356.19) rotate(-55.55)"> </text><text class="ct-cls-4" transform="translate(55.99 352.06) rotate(-55.55)"> </text><text class="ct-cls-4" transform="matrix(0.57, -0.82, 0.82, 0.57, 58.81, 347.94)"> </text><text class="ct-cls-4" transform="translate(61.64 343.82) rotate(-55.56)"> </text><text class="ct-cls-4" transform="translate(64.46 339.71) rotate(-55.55)">*</text><text class="ct-cls-4" transform="matrix(0.57, -0.82, 0.82, 0.57, 68.43, 333.91)"> </text><text class="ct-cls-4" transform="matrix(0.57, -0.82, 0.82, 0.57, 71.26, 329.79)"> </text><text class="ct-cls-4" transform="matrix(0.57, -0.82, 0.82, 0.57, 74.08, 325.67)"> </text><text class="ct-cls-4" transform="matrix(0.57, -0.82, 0.82, 0.57, 76.92, 321.54)"> </text><text class="ct-cls-4" transform="translate(79.74 317.42) rotate(-55.55)">*</text><text class="ct-cls-4" transform="matrix(0.57, -0.82, 0.82, 0.57, 83.71, 311.64)"> </text><text class="ct-cls-4" transform="translate(86.54 307.51) rotate(-55.55)"> </text><text class="ct-cls-4" transform="matrix(0.57, -0.82, 0.82, 0.57, 89.38, 303.38)"> </text><text class="ct-cls-4" transform="translate(92.19 299.27) rotate(-55.55)">*</text><text class="ct-cls-4" transform="translate(96.17 293.47) rotate(-55.55)"> </text><text class="ct-cls-4" transform="translate(98.99 289.35) rotate(-55.55)"> </text><text class="ct-cls-4" transform="translate(101.83 285.23) rotate(-55.56)"> </text><text class="ct-cls-4" transform="matrix(0.57, -0.82, 0.82, 0.57, 104.65, 281.11)"> </text><text class="ct-cls-4" transform="translate(107.49 276.97) rotate(-55.55)">*</text><text class="ct-cls-4" transform="translate(111.45 271.2) rotate(-55.55)"> </text><text class="ct-cls-4" transform="translate(114.26 267.09) rotate(-55.55)"> </text><text class="ct-cls-4" transform="translate(117.1 262.95) rotate(-55.55)"> </text><text class="ct-cls-4" transform="translate(119.94 258.82) rotate(-55.55)"> </text><text class="ct-cls-4" transform="translate(122.76 254.71) rotate(-55.55)">*</text><text class="ct-cls-4" transform="matrix(0.57, -0.82, 0.82, 0.57, 126.72, 248.92)"> </text><text class="ct-cls-4" transform="matrix(0.57, -0.82, 0.82, 0.57, 129.55, 244.8)"> </text><text class="ct-cls-4" transform="translate(132.38 240.67) rotate(-55.56)"> </text><text class="ct-cls-4" transform="translate(135.2 236.56) rotate(-55.55)"> </text><text class="ct-cls-4" transform="translate(138.05 232.42) rotate(-55.55)">*</text><text class="ct-cls-4" transform="translate(142.71 225.62) rotate(-55.56)"> </text><text class="ct-cls-4" transform="translate(128.62 221.15) rotate(180)"> <tspan x="4.98" y="0"> </tspan><tspan x="9.99" y="0"> </tspan><tspan x="14.99" y="0"> </tspan><tspan x="19.98" y="0">*</tspan><tspan x="27" y="0"> </tspan></text><text class="ct-cls-4" transform="translate(93.75 222.85) rotate(-55.01)"> </text><text class="ct-cls-4" transform="translate(96.2 219.35) rotate(-55.01)"> </text><text class="ct-cls-4" transform="translate(99.07 215.25) rotate(-55.01)"> </text><text class="ct-cls-4" transform="matrix(0.57, -0.82, 0.82, 0.57, 101.93, 211.17)">*</text><text class="ct-cls-4" transform="translate(105.95 205.41) rotate(-55.01)"> </text><text class="ct-cls-4" transform="translate(108.82 201.33) rotate(-55.01)"> </text><text class="ct-cls-4" transform="translate(111.69 197.22) rotate(-55.01)"> </text><text class="ct-cls-4" transform="translate(114.56 193.12) rotate(-55.01)"> </text><text class="ct-cls-4" transform="matrix(0.57, -0.82, 0.82, 0.57, 117.43, 189.02)"> </text><text class="ct-cls-4" transform="translate(120.3 184.92) rotate(-55.01)">*</text><text class="ct-cls-4" transform="translate(124.32 179.18) rotate(-55.01)"> </text><text class="ct-cls-4" transform="matrix(0.57, -0.82, 0.82, 0.57, 127.18, 175.09)"> </text><text class="ct-cls-4" transform="matrix(0.57, -0.82, 0.82, 0.57, 130.05, 170.99)"> </text><text class="ct-cls-4" transform="translate(132.91 166.9) rotate(-55.01)"> </text><text class="ct-cls-4" transform="translate(135.78 162.8) rotate(-55.01)">*</text><text class="ct-cls-4" transform="matrix(0.57, -0.82, 0.82, 0.57, 139.81, 157.05)"> </text><text class="ct-cls-4" transform="matrix(0.57, -0.82, 0.82, 0.57, 142.67, 152.96)"> </text><text class="ct-cls-4" transform="matrix(0.57, -0.82, 0.82, 0.57, 145.54, 148.86)"> </text><text class="ct-cls-4" transform="translate(148.4 144.77) rotate(-55.01)"> </text></svg>