<svg id="cloud" xmlns="http://www.w3.org/2000/svg" viewBox="0 0 603.37 270.64"><defs><style>.cl-cls-1{fill:#fff;}.cl-cls-2{fill:none;stroke:#231f20;stroke-miterlimit:10;stroke-width:7px;}.cl-cls-3{font-size:25px;fill:#231f20;font-family:ArialMT, Arial;}</style></defs><title>cloud-icon</title><path id="cloud-fill" class="cl-cls-1" d="M3.5,146.21c.16,33.14,60.42,82.29,100,42.71,29.17,70.83,122.92,121.83,202.25,22.91C366,280.58,463.92,288.92,501.42,216c45.83,33.33,112.5,10.42,95.83-69.79C589,106.33,534.75,38.92,451.42,82.67,424.33,16,379.6,3.5,300.38,3.5c-46.73,0-107.3,29.17-117.71,83.33C128.5,22.25,3.05,53.5,3.5,146.21Z"/><path id="cloud-stroke" class="cl-cls-2" d="M3.5,146.21c.16,33.14,60.42,82.29,100,42.71,29.17,70.83,122.92,121.83,202.25,22.91C366,280.58,463.92,288.92,501.42,216c45.83,33.33,112.5,10.42,95.83-69.79C589,106.33,534.75,38.92,451.42,82.67,424.33,16,379.6,3.5,300.38,3.5c-46.73,0-107.3,29.17-117.71,83.33C128.5,22.25,3.05,53.5,3.5,146.21Z"/><text id="cloud-type" class="cl-cls-3" transform="translate(349.09 26.04) rotate(8.64)">-</text><text class="cl-cls-3" transform="matrix(0.98, 0.19, -0.19, 0.98, 357.15, 27.27)"> </text><text class="cl-cls-3" transform="translate(363.77 28.53) rotate(13.99)">-</text><text class="cl-cls-3" transform="translate(371.6 30.49) rotate(17.48)"> </text><text class="cl-cls-3" transform="translate(377.95 32.45) rotate(21.57)">-</text><text class="cl-cls-3" transform="translate(385.37 35.39) rotate(26.24)"> </text><text class="cl-cls-3" transform="matrix(0.85, 0.52, -0.52, 0.85, 391.28, 38.24)">-</text><text class="cl-cls-3" transform="matrix(0.8, 0.6, -0.6, 0.8, 398.04, 42.4)"> </text><text class="cl-cls-3" transform="translate(403.31 46.34) rotate(41.96)"> </text><text class="cl-cls-3" transform="translate(408.23 50.71) rotate(47.22)">-</text><text class="cl-cls-3" transform="translate(413.63 56.57) rotate(52.07)"> </text><text class="cl-cls-3" transform="translate(417.73 61.79) rotate(56.38)">-</text><text class="cl-cls-3" transform="translate(422.17 68.5) rotate(60.12)"> </text><text class="cl-cls-3" transform="matrix(0.45, 0.89, -0.89, 0.45, 425.53, 74.3)">-</text><text class="cl-cls-3" transform="translate(429.17 81.58) rotate(66.03)"> </text><text class="cl-cls-3" transform="translate(431.91 87.83) rotate(67.69)">-</text><text class="cl-cls-3" transform="translate(435.09 95.61) rotate(67.89)"> </text><text class="cl-cls-3" transform="translate(449.2 106.42) rotate(-27.7)">-</text><text class="cl-cls-3" transform="translate(456.58 102.52) rotate(-27.36)"> </text><text class="cl-cls-3" transform="translate(462.57 99.34) rotate(-24.88)">-</text><text class="cl-cls-3" transform="translate(469.89 95.95) rotate(-21.25)"> </text><text class="cl-cls-3" transform="matrix(0.96, -0.3, 0.3, 0.96, 476.07, 93.5)">-</text><text class="cl-cls-3" transform="matrix(0.98, -0.22, 0.22, 0.98, 483.7, 91.15)"> </text><text class="cl-cls-3" transform="translate(490.12 89.65) rotate(-7.61)">-</text><text class="cl-cls-3" transform="translate(497.99 88.61) rotate(-2.09)"> </text><text class="cl-cls-3" transform="translate(504.5 88.31) rotate(3.91)">-</text><text class="cl-cls-3" transform="matrix(0.98, 0.18, -0.18, 0.98, 512.34, 88.85)"> </text><text class="cl-cls-3" transform="translate(518.76 89.94) rotate(16.36)">-</text><text class="cl-cls-3" transform="translate(526.32 92.17) rotate(22.48)"> </text><text class="cl-cls-3" transform="translate(532.36 94.61) rotate(28.34)">-</text><text class="cl-cls-3" transform="translate(539.33 98.39) rotate(33.91)"> </text><text class="cl-cls-3" transform="translate(544.8 102.01) rotate(39.11)">-</text><text class="cl-cls-3" transform="translate(550.97 107.06) rotate(44.01)"> </text><text class="cl-cls-3" transform="matrix(0.66, 0.75, -0.75, 0.66, 555.76, 111.63)">-</text><text class="cl-cls-3" transform="translate(561.03 117.64) rotate(53.07)"> </text><text class="cl-cls-3" transform="translate(565.04 122.91) rotate(57.46)">-</text><text class="cl-cls-3" transform="matrix(0.47, 0.88, -0.88, 0.47, 569.34, 129.66)"> </text><text class="cl-cls-3" transform="matrix(0.39, 0.92, -0.92, 0.39, 572.48, 135.46)">-</text><text class="cl-cls-3" transform="translate(575.57 142.71) rotate(73.14)"> </text><text class="cl-cls-3" transform="translate(577.45 148.91) rotate(79.62)">-</text><text class="cl-cls-3" transform="translate(578.9 156.83) rotate(83.61)"> </text><text class="cl-cls-3" transform="translate(579.68 163.39) rotate(88.31)">-</text><text class="cl-cls-3" transform="matrix(-0.07, 1, -1, -0.07, 579.92, 171.3)"> </text><text class="cl-cls-3" transform="matrix(-0.19, 0.98, -0.98, -0.19, 579.57, 177.75)">-</text><text class="cl-cls-3" transform="translate(578.15 185.32) rotate(109.27)"> </text><text class="cl-cls-3" transform="translate(576.25 191.25) rotate(119.75)">-</text><text class="cl-cls-3" transform="translate(572.59 197.76) rotate(131.99)"> </text><text class="cl-cls-3" transform="matrix(-0.82, 0.58, -0.58, -0.82, 568.69, 202.36)">-</text><text class="cl-cls-3" transform="matrix(-0.92, 0.39, -0.39, -0.92, 562.58, 206.66)"> </text><text class="cl-cls-3" transform="translate(556.97 209.15) rotate(168.32)">-</text><text class="cl-cls-3" transform="matrix(-1, 0.03, -0.03, -1, 549.5, 210.67)"> </text><text class="cl-cls-3" transform="translate(543.18 210.93) rotate(-172.89)">-</text><text class="cl-cls-3" transform="translate(535.52 209.96) rotate(-164.85)"> </text><text class="cl-cls-3" transform="translate(529.3 208.34) rotate(-157.46)">-</text><text class="cl-cls-3" transform="translate(522.09 205.33) rotate(-150.5)"> </text><text class="cl-cls-3" transform="translate(516.41 202.07) rotate(-145.08)">-</text><text class="cl-cls-3" transform="translate(509.68 197.28) rotate(-143.97)"> </text><text class="cl-cls-3" transform="translate(491.37 191.8) rotate(117.22)">-</text><text class="cl-cls-3" transform="translate(487.32 199.69) rotate(117.29)"> </text><text class="cl-cls-3" transform="translate(484.3 205.77) rotate(119.24)">-</text><text class="cl-cls-3" transform="matrix(-0.56, 0.83, -0.83, -0.56, 480.4, 212.73)"> </text><text class="cl-cls-3" transform="matrix(-0.64, 0.77, -0.77, -0.64, 476.76, 218.18)">-</text><text class="cl-cls-3" transform="matrix(-0.71, 0.7, -0.7, -0.71, 471.71, 224.27)"> </text><text class="cl-cls-3" transform="translate(467.12 228.9) rotate(141.2)">-</text><text class="cl-cls-3" transform="translate(460.95 233.84) rotate(147.24)"> </text><text class="cl-cls-3" transform="translate(455.5 237.42) rotate(153.27)">-</text><text class="cl-cls-3" transform="translate(448.47 240.94) rotate(159.16)"> </text><text class="cl-cls-3" transform="matrix(-0.97, 0.26, -0.26, -0.97, 442.35, 243.33)">-</text><text class="cl-cls-3" transform="translate(434.69 245.38) rotate(170.3)"> </text><text class="cl-cls-3" transform="translate(428.22 246.52) rotate(175.38)">-</text><text class="cl-cls-3" transform="translate(420.31 247.18) rotate(-179.38)"> </text><text class="cl-cls-3" transform="translate(413.63 247.17) rotate(-175.54)">-</text><text class="cl-cls-3" transform="matrix(-0.99, -0.15, 0.15, -0.99, 405.65, 246.54)"> </text><text class="cl-cls-3" transform="matrix(-0.98, -0.22, 0.22, -0.98, 399.04, 245.57)">-</text><text class="cl-cls-3" transform="translate(391.18 243.81) rotate(-163.8)"> </text><text class="cl-cls-3" transform="matrix(-0.94, -0.34, 0.34, -0.94, 384.74, 241.97)">-</text><text class="cl-cls-3" transform="translate(377.14 239.23) rotate(-156.91)"> </text><text class="cl-cls-3" transform="translate(370.97 236.63) rotate(-153.71)">-</text><text class="cl-cls-3" transform="translate(363.7 233.01) rotate(-150.61)"> </text><text class="cl-cls-3" transform="matrix(-0.84, -0.54, 0.54, -0.84, 357.82, 229.73)">-</text><text class="cl-cls-3" transform="translate(350.98 225.38) rotate(-144.74)"> </text><text class="cl-cls-3" transform="translate(345.47 221.48) rotate(-142.18)"> </text><text class="cl-cls-3" transform="translate(340.11 217.35) rotate(-139.41)">-</text><text class="cl-cls-3" transform="translate(333.97 212.07) rotate(-136.71)"> </text><text class="cl-cls-3" transform="translate(329.03 207.45) rotate(-134.03)">-</text><text class="cl-cls-3" transform="translate(323.39 201.58) rotate(-131.61)"> </text><text class="cl-cls-3" transform="translate(318.8 196.38) rotate(-131.23)">-</text><text class="cl-cls-3" transform="translate(312.97 189.73) rotate(-131.23)"> </text><text class="cl-cls-3" transform="translate(296.44 191.47) rotate(128.73)">-</text><text class="cl-cls-3" transform="translate(291.27 197.97) rotate(129.3)"> </text><text class="cl-cls-3" transform="matrix(-0.66, 0.75, -0.75, -0.66, 287, 203.23)">-</text><text class="cl-cls-3" transform="matrix(-0.69, 0.72, -0.72, -0.69, 281.6, 209.33)"> </text><text class="cl-cls-3" transform="translate(276.92 214.23) rotate(136.48)">-</text><text class="cl-cls-3" transform="translate(271.05 219.8) rotate(139.36)"> </text><text class="cl-cls-3" transform="matrix(-0.79, 0.61, -0.61, -0.79, 265.96, 224.2)">-</text><text class="cl-cls-3" transform="translate(259.56 229.1) rotate(146)"> </text><text class="cl-cls-3" transform="translate(254.04 232.86) rotate(149.83)">-</text><text class="cl-cls-3" transform="translate(247.11 236.88) rotate(154.01)"> </text><text class="cl-cls-3" transform="translate(241.17 239.83) rotate(158.57)">-</text><text class="cl-cls-3" transform="translate(233.75 242.73) rotate(163.49)"> </text><text class="cl-cls-3" transform="translate(227.47 244.65) rotate(168.74)">-</text><text class="cl-cls-3" transform="translate(219.69 246.18) rotate(174.26)"> </text><text class="cl-cls-3" transform="translate(213.22 246.85) rotate(179.33)">-</text><text class="cl-cls-3" transform="translate(205.27 246.89) rotate(-174.46)"> </text><text class="cl-cls-3" transform="translate(198.75 246.31) rotate(-169)">-</text><text class="cl-cls-3" transform="translate(190.96 244.78) rotate(-163.73)"> </text><text class="cl-cls-3" transform="translate(184.63 242.97) rotate(-158.69)">-</text><text class="cl-cls-3" transform="translate(177.2 240.05) rotate(-153.88)"> </text><text class="cl-cls-3" transform="matrix(-0.86, -0.51, 0.51, -0.86, 171.23, 237.17)">-</text><text class="cl-cls-3" transform="matrix(-0.82, -0.57, 0.57, -0.82, 164.34, 233.07)"> </text><text class="cl-cls-3" transform="matrix(-0.78, -0.63, 0.63, -0.78, 158.88, 229.29)">-</text><text class="cl-cls-3" transform="matrix(-0.73, -0.68, 0.68, -0.73, 152.65, 224.22)"> </text><text class="cl-cls-3" transform="matrix(-0.69, -0.73, 0.73, -0.69, 147.73, 219.69)">-</text><text class="cl-cls-3" transform="translate(142.22 213.83) rotate(-129.67)"> </text><text class="cl-cls-3" transform="matrix(-0.59, -0.81, 0.81, -0.59, 137.92, 208.69)">-</text><text class="cl-cls-3" transform="translate(133.2 202.18) rotate(-122.48)"> </text><text class="cl-cls-3" transform="matrix(-0.48, -0.88, 0.88, -0.48, 129.58, 196.55)">-</text><text class="cl-cls-3" transform="matrix(-0.43, -0.9, 0.9, -0.43, 125.7, 189.49)"> </text><text class="cl-cls-3" transform="translate(122.85 183.37) rotate(-112.48)">-</text><text class="cl-cls-3" transform="translate(119.68 175.68) rotate(-112.38)"> </text><text class="cl-cls-3" transform="translate(117.02 169.21) rotate(-112.38)">-</text><text class="cl-cls-3" transform="translate(101.43 162.71) rotate(135)"> <tspan x="6.96" y="0">-</tspan></text><text class="cl-cls-3" transform="matrix(-0.76, 0.65, -0.65, -0.76, 90.98, 173.47)"> </text><text class="cl-cls-3" transform="matrix(-0.86, 0.51, -0.51, -0.86, 86.45, 177.71)">-</text><text class="cl-cls-3" transform="translate(80.17 181.46) rotate(163.47)"> </text><text class="cl-cls-3" transform="matrix(-1, 0.04, -0.04, -1, 74.51, 183.35)">-</text><text class="cl-cls-3" transform="matrix(-0.99, -0.17, 0.17, -0.99, 67.08, 183.72)"> </text><text class="cl-cls-3" transform="translate(60.89 182.72) rotate(-160.53)">-</text><text class="cl-cls-3" transform="translate(53.61 180.1) rotate(-152.5)"> </text><text class="cl-cls-3" transform="translate(47.89 177.19) rotate(-145.44)">-</text><text class="cl-cls-3" transform="translate(41.41 172.71) rotate(-138.84)"> </text><text class="cl-cls-3" transform="translate(36.49 168.51) rotate(-132.28)">-</text><text class="cl-cls-3" transform="translate(31.23 162.76) rotate(-124.84)"> </text><text class="cl-cls-3" transform="translate(27.5 157.76) rotate(-114.95)">-</text><text class="cl-cls-3" transform="translate(24.17 151.41) rotate(-97.75)">-</text><text class="cl-cls-3" transform="translate(23.44 143.94) rotate(-86.3)"> </text><text class="cl-cls-3" transform="translate(23.85 137.38) rotate(-81.23)"> </text><text class="cl-cls-3" transform="matrix(0.25, -0.97, 0.97, 0.25, 24.78, 130.93)">-</text><text class="cl-cls-3" transform="translate(26.78 123.34) rotate(-68.97)"> </text><text class="cl-cls-3" transform="translate(29.05 117.25) rotate(-62.53)">-</text><text class="cl-cls-3" transform="translate(32.7 110.27) rotate(-56.14)"> </text><text class="cl-cls-3" transform="matrix(0.64, -0.77, 0.77, 0.64, 36.27, 104.85)">-</text><text class="cl-cls-3" transform="translate(41.31 98.8) rotate(-43.63)">-</text><text class="cl-cls-3" transform="matrix(0.79, -0.62, 0.62, 0.79, 47.05, 93.35)"> </text><text class="cl-cls-3" transform="matrix(0.84, -0.54, 0.54, 0.84, 52.19, 89.28)">-</text><text class="cl-cls-3" transform="translate(58.92 84.98) rotate(-27.76)"> </text><text class="cl-cls-3" transform="translate(64.75 81.87) rotate(-23.04)">-</text><text class="cl-cls-3" transform="matrix(0.95, -0.32, 0.32, 0.95, 72.09, 78.76)"> </text><text class="cl-cls-3" transform="translate(78.42 76.64) rotate(-14.46)"> </text><text class="cl-cls-3" transform="translate(84.82 74.94) rotate(-10.08)">-</text><text class="cl-cls-3" transform="translate(92.7 73.56) rotate(-5.71)"> </text><text class="cl-cls-3" transform="matrix(1, -0.02, 0.02, 1, 99.3, 72.86)">-</text><text class="cl-cls-3" transform="translate(107.3 72.69) rotate(3.17)"> </text><text class="cl-cls-3" transform="matrix(0.99, 0.14, -0.14, 0.99, 113.9, 73.01)">-</text><text class="cl-cls-3" transform="translate(121.79 74.1) rotate(12.5)"> </text><text class="cl-cls-3" transform="translate(128.24 75.48) rotate(17.42)">-</text><text class="cl-cls-3" transform="matrix(0.92, 0.38, -0.38, 0.92, 135.84, 77.88)"> </text><text class="cl-cls-3" transform="translate(141.92 80.35) rotate(27.79)">-</text><text class="cl-cls-3" transform="matrix(0.84, 0.55, -0.55, 0.84, 148.93, 84.05)"> </text><text class="cl-cls-3" transform="matrix(0.78, 0.63, -0.63, 0.78, 154.44, 87.6)">-</text><text class="cl-cls-3" transform="translate(160.58 92.57) rotate(44.76)"> </text><text class="cl-cls-3" transform="translate(165.24 97.22) rotate(49.65)">-</text><text class="cl-cls-3" transform="matrix(0.64, 0.77, -0.77, 0.64, 170.6, 103.57)">-</text><text class="cl-cls-3" transform="translate(175.95 109.94) rotate(50.01)"> </text><text class="cl-cls-3" transform="matrix(0.64, 0.77, -0.77, 0.64, 180.41, 115.26)">-</text><text class="cl-cls-3" transform="translate(185.88 121.79) rotate(50.01)"> </text><text class="cl-cls-3" transform="translate(198 113.02) rotate(-79.11)">-</text><text class="cl-cls-3" transform="translate(199.57 104.84) rotate(-79.11)"> </text><text class="cl-cls-3" transform="translate(200.89 98.01) rotate(-79.11)">-</text><text class="cl-cls-3" transform="matrix(0.25, -0.97, 0.97, 0.25, 202.31, 90.1)"> </text><text class="cl-cls-3" transform="matrix(0.36, -0.93, 0.93, 0.36, 203.88, 83.79)">-</text><text class="cl-cls-3" transform="translate(206.73 76.47) rotate(-62.55)"> </text><text class="cl-cls-3" transform="matrix(0.55, -0.83, 0.83, 0.55, 209.69, 70.66)">-</text><text class="cl-cls-3" transform="translate(214.07 64.04) rotate(-51.06)"> </text><text class="cl-cls-3" transform="translate(218.17 58.91) rotate(-45.96)">-</text><text class="cl-cls-3" transform="translate(223.73 53.18) rotate(-41.24)"> </text><text class="cl-cls-3" transform="matrix(0.8, -0.6, 0.6, 0.8, 228.7, 48.79)">-</text><text class="cl-cls-3" transform="matrix(0.84, -0.54, 0.54, 0.84, 235.11, 43.99)"> </text><text class="cl-cls-3" transform="translate(240.72 40.34) rotate(-28.97)">-</text><text class="cl-cls-3" transform="translate(247.77 36.46) rotate(-25.33)"> </text><text class="cl-cls-3" transform="translate(253.8 33.57) rotate(-21.8)">-</text><text class="cl-cls-3" transform="matrix(0.95, -0.31, 0.31, 0.95, 261.31, 30.58)"> </text><text class="cl-cls-3" transform="translate(267.64 28.45) rotate(-14.88)">-</text><text class="cl-cls-3" transform="translate(275.46 26.39) rotate(-11.36)"> </text><text class="cl-cls-3" transform="translate(282 25.05) rotate(-7.73)">-</text><text class="cl-cls-3" transform="translate(289.97 23.97) rotate(-3.89)"> </text><text class="cl-cls-3" transform="translate(296.61 23.49) rotate(0.11)">-</text><text class="cl-cls-3" transform="matrix(1, 0.01, -0.01, 1, 304.89, 23.5)"> </text><text class="cl-cls-3" transform="translate(311.79 23.59) rotate(1.54)">-</text><text class="cl-cls-3" transform="translate(320.04 23.81) rotate(2.51)"> </text><text class="cl-cls-3" transform="matrix(1, 0.06, -0.06, 1, 326.89, 24.1)">-</text><text class="cl-cls-3" transform="matrix(1, 0.09, -0.09, 1, 335.09, 24.63)"> </text></svg>