<svg id="flower" xmlns="http://www.w3.org/2000/svg" viewBox="0 0 300.35 299.47"><defs><style>.f-cls-1{fill:#ed1c24;}.f-cls-2{font-size:10px;fill:#231f20;font-family:ArialMT, Arial;}.f-cls-3{fill:#fbb040;}</style></defs><title>flower-icon</title><g id="flower-petals"><ellipse class="f-cls-1" cx="150.85" cy="46.85" rx="21.53" ry="46.85"/><ellipse class="f-cls-1" cx="77.01" cy="75.88" rx="21.53" ry="46.85" transform="translate(-31.1 76.68) rotate(-45)"/><ellipse class="f-cls-1" cx="46.85" cy="148.62" rx="46.85" ry="21.53"/><ellipse class="f-cls-1" cx="253.5" cy="149.09" rx="46.85" ry="21.53"/><ellipse class="f-cls-1" cx="223.59" cy="77.01" rx="46.85" ry="21.53" transform="translate(11.03 180.65) rotate(-45)"/><ellipse class="f-cls-1" cx="222.46" cy="222.71" rx="21.53" ry="46.85" transform="translate(-92.32 222.53) rotate(-45)"/><ellipse class="f-cls-1" cx="150.38" cy="252.62" rx="21.53" ry="46.85"/><ellipse class="f-cls-1" cx="77.64" cy="220.7" rx="46.85" ry="21.53" transform="translate(-133.32 119.54) rotate(-45)"/></g><text id="flower-type" class="f-cls-2" transform="translate(169.77 101.86) rotate(-160.83)">~</text><text class="f-cls-2" transform="translate(163.7 99.79) rotate(-167.98)">~</text><text class="f-cls-2" transform="matrix(-1, -0.09, 0.09, -1, 157.43, 98.49)">~</text><text class="f-cls-2" transform="matrix(-1, 0.04, -0.04, -1, 151.04, 97.98)">~</text><text class="f-cls-2" transform="translate(144.62 98.25) rotate(170.79)">~</text><text class="f-cls-2" transform="translate(138.3 99.31) rotate(163.64)">~</text><text class="f-cls-2" transform="translate(132.15 101.15) rotate(156.49)">~</text><text class="f-cls-2" transform="matrix(-0.86, 0.51, -0.51, -0.86, 126.29, 103.74)">~</text><text class="f-cls-2" transform="translate(120.8 107.03) rotate(142.34)">~</text><text class="f-cls-2" transform="translate(115.75 110.98) rotate(135.3)">~</text><text class="f-cls-2" transform="translate(111.21 115.52) rotate(128.26)">~</text><text class="f-cls-2" transform="translate(107.28 120.56) rotate(121.22)">~</text><text class="f-cls-2" transform="translate(103.98 126.07) rotate(114.1)">~</text><text class="f-cls-2" transform="translate(101.39 131.94) rotate(106.96)">~</text><text class="f-cls-2" transform="translate(99.55 138.09) rotate(99.79)">~</text><text class="f-cls-2" transform="matrix(-0.05, 1, -1, -0.05, 98.5, 144.41)">~</text><text class="f-cls-2" transform="matrix(0.08, 1, -1, 0.08, 98.23, 150.82)">~</text><text class="f-cls-2" transform="matrix(0.2, 0.98, -0.98, 0.2, 98.75, 157.2)">~</text><text class="f-cls-2" transform="translate(100.06 163.5) rotate(71.4)">~</text><text class="f-cls-2" transform="translate(102.13 169.55) rotate(64.28)">~</text><text class="f-cls-2" transform="translate(104.95 175.32) rotate(57.18)">~</text><text class="f-cls-2" transform="matrix(0.64, 0.77, -0.77, 0.64, 108.46, 180.7)">~</text><text class="f-cls-2" transform="translate(112.59 185.58) rotate(43.1)">~</text><text class="f-cls-2" transform="matrix(0.81, 0.59, -0.59, 0.81, 117.28, 189.93)">~</text><text class="f-cls-2" transform="translate(122.49 193.68) rotate(29)">~</text><text class="f-cls-2" transform="translate(128.13 196.77) rotate(21.86)">~</text><text class="f-cls-2" transform="matrix(0.97, 0.25, -0.25, 0.97, 134.08, 199.12)">~</text><text class="f-cls-2" transform="translate(140.29 200.71) rotate(7.58)">~</text><text class="f-cls-2" transform="translate(146.69 201.5) rotate(0.93)">~</text><text class="f-cls-2" transform="matrix(0.99, -0.11, 0.11, 0.99, 153.05, 201.55)">~</text><text class="f-cls-2" transform="translate(159.44 200.78) rotate(-13.66)">~</text><text class="f-cls-2" transform="translate(165.65 199.23) rotate(-20.81)">~</text><text class="f-cls-2" transform="translate(171.64 196.92) rotate(-27.94)">~</text><text class="f-cls-2" transform="translate(177.28 193.89) rotate(-35.01)">~</text><text class="f-cls-2" transform="translate(182.52 190.18) rotate(-42.06)">~</text><text class="f-cls-2" transform="matrix(0.65, -0.76, 0.76, 0.65, 187.26, 185.86)">~</text><text class="f-cls-2" transform="translate(191.41 181.01) rotate(-56.11)">~</text><text class="f-cls-2" transform="translate(194.97 175.65) rotate(-63.22)">~</text><text class="f-cls-2" transform="matrix(0.34, -0.94, 0.94, 0.34, 197.82, 169.92)">~</text><text class="f-cls-2" transform="matrix(0.22, -0.98, 0.98, 0.22, 199.95, 163.85)">~</text><text class="f-cls-2" transform="translate(201.3 157.58) rotate(-84.64)">~</text><text class="f-cls-2" transform="matrix(-0.03, -1, 1, -0.03, 201.86, 151.2)">~</text><text class="f-cls-2" transform="translate(201.65 144.8) rotate(-98.73)">~</text><text class="f-cls-2" transform="matrix(-0.27, -0.96, 0.96, -0.27, 200.64, 138.46)">~</text><text class="f-cls-2" transform="matrix(-0.39, -0.92, 0.92, -0.39, 198.84, 132.29)">~</text><text class="f-cls-2" transform="translate(196.31 126.42) rotate(-120.14)">~</text><text class="f-cls-2" transform="matrix(-0.6, -0.8, 0.8, -0.6, 193.05, 120.89)">~</text><text class="f-cls-2" transform="translate(189.16 115.81) rotate(-134.23)">~</text><text class="f-cls-2" transform="translate(184.66 111.24) rotate(-141.27)">~</text><text class="f-cls-2" transform="matrix(-0.85, -0.53, 0.53, -0.85, 179.64, 107.26)">~</text><circle id="flower-centre" class="f-cls-3" cx="150.05" cy="149.8" r="41.75"/></svg>