<svg id="leaf" xmlns="http://www.w3.org/2000/svg" viewBox="0 0 351.6 656.36"><defs><style>.l-cls-1{fill:#39b54a;}.l-cls-2{fill:none;stroke:#231f20;stroke-miterlimit:10;stroke-width:8px;}.l-cls-3{font-size:26px;font-family:MyriadPro-Regular, Myriad Pro;}.l-cls-3,.l-cls-4{fill:#231f20;}</style></defs><title>leaf-icon</title><path id="leaf-fill" class="l-cls-1" d="M36.65,232.34C-15.7,336.88-9.15,456.87,86,504.5c68.49,34.3,180.85-23.77,233.2-128.32S335.56,6.05,335.56,6.05,89,127.79,36.65,232.34Z"/><path id="leaf-stroke" class="l-cls-2" d="M36.65,232.34C-15.7,336.88-9.15,456.87,86,504.5c68.49,34.3,180.85-23.77,233.2-128.32S335.56,6.05,335.56,6.05,89,127.79,36.65,232.34Z"/><text id="leaf-dashes" class="l-cls-3" transform="matrix(0.78, -0.63, 0.63, 0.78, 131.58, 170.11)">=</text><text class="l-cls-3" transform="matrix(0.79, -0.62, 0.62, 0.79, 143.58, 160.43)"> </text><text class="l-cls-3" transform="translate(147.87 157.02) rotate(-37.32)">=</text><text class="l-cls-3" transform="translate(160.15 147.7) rotate(-36.57)"> </text><text class="l-cls-3" transform="translate(164.51 144.42) rotate(-35.88)">=</text><text class="l-cls-3" transform="matrix(0.82, -0.58, 0.58, 0.82, 177.04, 135.4)"> </text><text class="l-cls-3" transform="translate(181.5 132.22) rotate(-34.62)">=</text><text class="l-cls-3" transform="translate(194.22 123.47) rotate(-34.04)"> </text><text class="l-cls-3" transform="matrix(0.83, -0.55, 0.55, 0.83, 198.74, 120.38)">=</text><text class="l-cls-3" transform="translate(211.64 111.88) rotate(-32.98)"> </text><text class="l-cls-3" transform="matrix(0.84, -0.54, 0.54, 0.84, 216.24, 108.86)">=</text><text class="l-cls-3" transform="matrix(0.85, -0.53, 0.53, 0.85, 229.29, 100.58)"> </text><text class="l-cls-3" transform="translate(233.93 97.66) rotate(-31.6)">=</text><text class="l-cls-3" transform="matrix(0.86, -0.52, 0.52, 0.86, 247.09, 89.58)"> </text><text class="l-cls-3" transform="matrix(0.86, -0.51, 0.51, 0.86, 251.77, 86.73)">=</text><text class="l-cls-3" transform="translate(265.08 78.82) rotate(-30.37)"> </text><text class="l-cls-3" transform="translate(269.79 76.05) rotate(-29.99)">=</text><text class="l-cls-3" transform="translate(283.2 68.32) rotate(-29.62)"> </text><text class="l-cls-3" transform="translate(287.96 65.6) rotate(-29.24)">=</text><text class="l-cls-3" transform="translate(301.47 58.06) rotate(-28.87)"> </text><text class="l-cls-3" transform="translate(310.06 46.33) rotate(84.64)">=</text><text class="l-cls-3" transform="translate(311.5 61.77) rotate(84.98)"> </text><text class="l-cls-3" transform="translate(311.99 67.2) rotate(85.36)">=</text><text class="l-cls-3" transform="matrix(0.07, 1, -1, 0.07, 313.23, 82.62)"> </text><text class="l-cls-3" transform="matrix(0.07, 1, -1, 0.07, 313.65, 88.08)">=</text><text class="l-cls-3" transform="translate(314.68 103.52) rotate(86.51)"> </text><text class="l-cls-3" transform="translate(315.03 109) rotate(86.89)">=</text><text class="l-cls-3" transform="translate(315.85 124.44) rotate(87.29)"> </text><text class="l-cls-3" transform="matrix(0.04, 1, -1, 0.04, 316.13, 129.91)">=</text><text class="l-cls-3" transform="translate(316.74 145.38) rotate(88.12)"> </text><text class="l-cls-3" transform="matrix(0.03, 1, -1, 0.03, 316.93, 150.84)">=</text><text class="l-cls-3" transform="translate(317.3 166.29) rotate(89.02)"> </text><text class="l-cls-3" transform="translate(317.42 171.77) rotate(89.51)">=</text><text class="l-cls-3" transform="translate(317.53 187.24) rotate(90.02)"> </text><text class="l-cls-3" transform="translate(317.55 192.7) rotate(90.57)">=</text><text class="l-cls-3" transform="translate(317.37 208.16) rotate(91.15)"> </text><text class="l-cls-3" transform="matrix(-0.03, 1, -1, -0.03, 317.29, 213.61)">=</text><text class="l-cls-3" transform="translate(316.79 229.05) rotate(92.46)"> </text><text class="l-cls-3" transform="translate(316.59 234.5) rotate(93.2)">=</text><text class="l-cls-3" transform="translate(315.69 249.92) rotate(94.01)"> </text><text class="l-cls-3" transform="translate(315.35 255.34) rotate(94.9)">=</text><text class="l-cls-3" transform="translate(313.99 270.71) rotate(95.89)"> </text><text class="l-cls-3" transform="translate(313.49 276.09) rotate(97)">=</text><text class="l-cls-3" transform="translate(311.56 291.38) rotate(98.26)"> </text><text class="l-cls-3" transform="matrix(-0.17, 0.99, -0.99, -0.17, 310.85, 296.73)">=</text><text class="l-cls-3" transform="translate(308.19 311.88) rotate(101.39)"> </text><text class="l-cls-3" transform="translate(307.23 317.15) rotate(103.36)">=</text><text class="l-cls-3" transform="translate(303.6 332.01) rotate(105.73)"> </text><text class="l-cls-3" transform="translate(302.3 337.17) rotate(108.64)">=</text><text class="l-cls-3" transform="matrix(-0.38, 0.93, -0.93, -0.38, 297.31, 351.52)"> </text><text class="l-cls-3" transform="translate(295.56 356.41) rotate(116.88)">=</text><text class="l-cls-3" transform="translate(288.55 370.04) rotate(119.21)"> </text><text class="l-cls-3" transform="translate(286.05 374.74) rotate(121.6)">=</text><text class="l-cls-3" transform="translate(277.94 387.73) rotate(123.97)"> </text><text class="l-cls-3" transform="translate(275.05 392.2) rotate(126.3)">=</text><text class="l-cls-3" transform="matrix(-0.62, 0.78, -0.78, -0.62, 265.91, 404.49)"> </text><text class="l-cls-3" transform="matrix(-0.66, 0.75, -0.75, -0.66, 262.65, 408.74)">=</text><text class="l-cls-3" transform="matrix(-0.69, 0.73, -0.73, -0.69, 252.54, 420.22)"> </text><text class="l-cls-3" transform="translate(248.96 424.18) rotate(135.73)">=</text><text class="l-cls-3" transform="translate(237.92 434.79) rotate(138.19)"> </text><text class="l-cls-3" transform="translate(234.03 438.43) rotate(140.72)">=</text><text class="l-cls-3" transform="translate(222.13 448.03) rotate(143.33)"> </text><text class="l-cls-3" transform="translate(217.94 451.29) rotate(146.01)">=</text><text class="l-cls-3" transform="matrix(-0.86, 0.52, -0.52, -0.86, 205.22, 459.74)"> </text><text class="l-cls-3" transform="translate(200.75 462.61) rotate(151.76)">=</text><text class="l-cls-3" transform="translate(187.26 469.71) rotate(154.94)"> </text><text class="l-cls-3" transform="matrix(-0.93, 0.37, -0.37, -0.93, 182.58, 472.08)">=</text><text class="l-cls-3" transform="translate(168.38 477.54) rotate(162.2)"> </text><text class="l-cls-3" transform="translate(163.49 479.32) rotate(166.44)">=</text><text class="l-cls-3" transform="translate(148.74 482.7) rotate(171.25)"> </text><text class="l-cls-3" transform="translate(135.02 487.39) rotate(-156.77)">=</text><text class="l-cls-3" transform="translate(117.63 483.36) rotate(-168.41)"> </text><text class="l-cls-3" transform="matrix(-0.94, -0.34, 0.34, -0.94, 112.71, 482.94)">=</text><text class="l-cls-3" transform="translate(98.87 477.44) rotate(-151.92)"> </text><text class="l-cls-3" transform="translate(94.21 475.21) rotate(-147.23)">=</text><text class="l-cls-3" transform="translate(81.6 466.86) rotate(-142.25)"> </text><text class="l-cls-3" transform="translate(77.41 463.92) rotate(-137.07)">=</text><text class="l-cls-3" transform="translate(66.51 453.5) rotate(-131.75)"> </text><text class="l-cls-3" transform="translate(62.91 449.84) rotate(-126.37)">=</text><text class="l-cls-3" transform="matrix(-0.52, -0.86, 0.86, -0.52, 54.14, 437.56)"> </text><text class="l-cls-3" transform="translate(51.28 433.27) rotate(-116.06)">=</text><text class="l-cls-3" transform="translate(44.81 419.6) rotate(-111.3)"> </text><text class="l-cls-3" transform="translate(42.74 414.86) rotate(-106.83)">=</text><text class="l-cls-3" transform="translate(38.51 400.26) rotate(-102.67)"> </text><text class="l-cls-3" transform="matrix(-0.15, -0.99, 0.99, -0.15, 37.2, 395.21)">=</text><text class="l-cls-3" transform="translate(35.01 380.13) rotate(-95.31)"> </text><text class="l-cls-3" transform="matrix(-0.04, -1, 1, -0.04, 34.38, 374.91)">=</text><text class="l-cls-3" transform="translate(33.96 359.66) rotate(-88.97)"> </text><text class="l-cls-3" transform="matrix(0.07, -1, 1, 0.07, 33.93, 354.38)">=</text><text class="l-cls-3" transform="matrix(0.12, -0.99, 0.99, 0.12, 35.09, 339.11)"> </text><text class="l-cls-3" transform="translate(35.59 333.82) rotate(-80.8)">=</text><text class="l-cls-3" transform="translate(38.14 318.74) rotate(-78.37)"> </text><text class="l-cls-3" transform="translate(39.11 313.49) rotate(-76.05)">=</text><text class="l-cls-3" transform="matrix(0.28, -0.96, 0.96, 0.28, 42.9, 298.62)"> </text><text class="l-cls-3" transform="translate(44.3 293.48) rotate(-71.69)">=</text><text class="l-cls-3" transform="translate(49.2 278.94) rotate(-69.63)"> </text><text class="l-cls-3" transform="translate(50.99 273.87) rotate(-67.64)">=</text><text class="l-cls-3" transform="translate(56.9 259.73) rotate(-65.71)"> </text><text class="l-cls-3" transform="translate(59.03 254.79) rotate(-63.82)">=</text><text class="l-cls-3" transform="matrix(0.51, -0.86, 0.86, 0.51, 65.84, 241.27)"> </text><text class="l-cls-3" transform="matrix(0.57, -0.82, 0.82, 0.57, 68.36, 236.7)">=</text><text class="l-cls-3" transform="matrix(0.62, -0.78, 0.78, 0.62, 77.24, 224.31)"> </text><text class="l-cls-3" transform="translate(80.45 220.07) rotate(-49.04)">=</text><text class="l-cls-3" transform="matrix(0.68, -0.73, 0.73, 0.68, 90.57, 208.55)"> </text><text class="l-cls-3" transform="translate(94.18 204.59) rotate(-45.07)">=</text><text class="l-cls-3" transform="matrix(0.73, -0.69, 0.69, 0.73, 105.08, 193.75)"> </text><text class="l-cls-3" transform="matrix(0.74, -0.67, 0.67, 0.74, 108.98, 189.98)">=</text><g id="leaf-stem"><path class="l-cls-4" d="M43.53,656.36a635.86,635.86,0,0,1-1.6-68.46l.12-4.27.21-4.28.44-8.54c.33-5.7.84-11.38,1.25-17.06.58-5.68,1.11-11.35,1.76-17l1.09-8.48c.36-2.83.7-5.66,1.17-8.47A576.3,576.3,0,0,1,83.53,388.32a589,589,0,0,1,65.08-119.07l4.95-6.89c1.67-2.28,3.25-4.62,5-6.84l10.31-13.46,10.7-13.14c1.76-2.21,3.65-4.31,5.49-6.46l5.54-6.4c14.92-16.95,30.66-33.14,47.05-48.62-15.9,16-31.1,32.65-45.43,50L186.9,224c-1.76,2.19-3.58,4.34-5.26,6.6L171.4,244l-9.82,13.71c-1.67,2.26-3.17,4.64-4.76,6.95l-4.7,7A582.93,582.93,0,0,0,91.46,391.37,566.13,566.13,0,0,0,60.61,521.45c-.37,2.76-.62,5.54-.88,8.31l-.8,8.32c-.47,5.55-.81,11.12-1.21,16.67-.22,5.57-.55,11.13-.69,16.69l-.16,8.35L56.79,584l0,4.17a617.25,617.25,0,0,0,3.65,66.62Z"/></g></svg>