<svg id="Layer_1" data-name="Layer 1" xmlns="http://www.w3.org/2000/svg" viewBox="0 0 331.43 341.99"><defs><style>.m-cls-1,.m-cls-4{fill:none;}.m-cls-1,.m-cls-2,.m-cls-4{stroke:#231f20;stroke-miterlimit:10;}.m-cls-1{stroke-width:6px;}.m-cls-2{fill:#1b75bc;}.m-cls-2,.m-cls-4{stroke-width:5px;}.m-cls-3{font-size:26px;fill:#d1d3d4;font-family:ArialMT, Arial;}</style></defs><title>moon-icon</title><path id="moon-fill" class="m-cls-1" d="M323.71,254.38A172.36,172.36,0,1,1,111.51,6.52a168.47,168.47,0,0,0,212.2,247.86Z"/><path id="moon-stroke-outer" class="m-cls-2" d="M323.71,254.38A172.36,172.36,0,1,1,111.51,6.52a168.47,168.47,0,0,0,212.2,247.86Z"/><text id="moon-dashes" class="m-cls-3" transform="matrix(-0.27, -0.96, 0.96, -0.27, 29.97, 212.47)">-</text><text class="m-cls-3" transform="translate(27.68 204.36) rotate(-102.96)"> </text><text class="m-cls-3" transform="translate(26.1 197.51) rotate(-100.3)"> </text><text class="m-cls-3" transform="matrix(-0.13, -0.99, 0.99, -0.13, 24.83, 190.64)">-</text><text class="m-cls-3" transform="matrix(-0.08, -1, 1, -0.08, 23.75, 182.28)"> </text><text class="m-cls-3" transform="translate(23.2 175.28) rotate(-91.87)"> </text><text class="m-cls-3" transform="translate(22.95 168.27) rotate(-89)">-</text><text class="m-cls-3" transform="translate(23.11 159.83) rotate(-86.14)"> </text><text class="m-cls-3" transform="matrix(0.11, -0.99, 0.99, 0.11, 23.58, 152.81)"> </text><text class="m-cls-3" transform="matrix(0.16, -0.99, 0.99, 0.16, 24.34, 145.85)">-</text><text class="m-cls-3" transform="translate(25.73 137.54) rotate(-77.71)"> </text><text class="m-cls-3" transform="matrix(0.26, -0.97, 0.97, 0.26, 27.22, 130.69)"> </text><text class="m-cls-3" transform="translate(29 123.92) rotate(-72.12)">-</text><text class="m-cls-3" transform="translate(31.6 115.89) rotate(-69.19)"> </text><text class="m-cls-3" transform="translate(34.1 109.32) rotate(-66.51)"> </text><text class="m-cls-3" transform="translate(36.86 102.89) rotate(-63.59)">-</text><text class="m-cls-3" transform="translate(40.63 95.34) rotate(-60.67)"> </text><text class="m-cls-3" transform="translate(44.06 89.21) rotate(-58.03)"> </text><text class="m-cls-3" transform="translate(47.76 83.26) rotate(-55.2)">-</text><text class="m-cls-3" transform="translate(52.58 76.34) rotate(-52.3)"> </text><text class="m-cls-3" transform="translate(56.87 70.78) rotate(-49.69)"> </text><text class="m-cls-3" transform="matrix(0.93, -0.36, 0.36, 0.93, 58.97, 65.33)">-</text><text class="m-cls-3" transform="matrix(0.77, 0.64, -0.64, 0.77, 62.18, 60.39)"> </text><text class="m-cls-3" transform="translate(65.12 61.76) rotate(95.05)"> </text><text class="m-cls-3" transform="matrix(-0.16, 0.99, -0.99, -0.16, 64.09, 68.92)">-</text><text class="m-cls-3" transform="translate(62.67 77.94) rotate(96.5)"> </text><text class="m-cls-3" transform="translate(61.81 85.57) rotate(94.18)"> </text><text class="m-cls-3" transform="translate(61.25 93.26) rotate(91.66)">-</text><text class="m-cls-3" transform="translate(61 102.45) rotate(89.07)"> </text><text class="m-cls-3" transform="translate(61.13 110.1) rotate(86.83)"> </text><text class="m-cls-3" transform="translate(61.55 117.79) rotate(84.27)">-</text><text class="m-cls-3" transform="translate(62.49 126.91) rotate(81.7)"> </text><text class="m-cls-3" transform="translate(63.61 134.51) rotate(79.35)"> </text><text class="m-cls-3" transform="translate(65.03 142.09) rotate(76.77)">-</text><text class="m-cls-3" transform="matrix(0.27, 0.96, -0.96, 0.27, 67.16, 151)"> </text><text class="m-cls-3" transform="matrix(0.31, 0.95, -0.95, 0.31, 69.26, 158.4)"> </text><text class="m-cls-3" transform="matrix(0.35, 0.93, -0.93, 0.35, 71.67, 165.75)">-</text><text class="m-cls-3" transform="translate(74.95 174.3) rotate(66.64)"> </text><text class="m-cls-3" transform="translate(78 181.36) rotate(64.3)"> </text><text class="m-cls-3" transform="translate(81.34 188.3) rotate(61.73)">-</text><text class="m-cls-3" transform="translate(85.71 196.37) rotate(59.16)"> </text><text class="m-cls-3" transform="translate(89.66 202.96) rotate(56.83)"> </text><text class="m-cls-3" transform="matrix(0.58, 0.81, -0.81, 0.58, 93.87, 209.41)">-</text><text class="m-cls-3" transform="matrix(0.62, 0.79, -0.79, 0.62, 99.24, 216.84)"> </text><text class="m-cls-3" transform="matrix(0.65, 0.76, -0.76, 0.65, 104, 222.86)"> </text><text class="m-cls-3" transform="translate(109 228.71) rotate(46.88)">-</text><text class="m-cls-3" transform="translate(115.29 235.38) rotate(44.33)"> </text><text class="m-cls-3" transform="translate(120.78 240.73) rotate(42.02)"> </text><text class="m-cls-3" transform="translate(126.53 245.91) rotate(39.47)">-</text><text class="m-cls-3" transform="matrix(0.8, 0.6, -0.6, 0.8, 133.6, 251.7)"> </text><text class="m-cls-3" transform="translate(139.75 256.31) rotate(34.6)"> </text><text class="m-cls-3" transform="matrix(0.85, 0.53, -0.53, 0.85, 146.09, 260.69)">-</text><text class="m-cls-3" transform="translate(153.87 265.53) rotate(29.49)"> </text><text class="m-cls-3" transform="translate(160.54 269.29) rotate(27.15)"> </text><text class="m-cls-3" transform="translate(167.43 272.83) rotate(24.57)">-</text><text class="m-cls-3" transform="translate(175.76 276.61) rotate(22)"> </text><text class="m-cls-3" transform="matrix(0.94, 0.34, -0.34, 0.94, 182.9, 279.48)"> </text><text class="m-cls-3" transform="matrix(0.96, 0.29, -0.29, 0.96, 190.18, 282.09)">-</text><text class="m-cls-3" transform="translate(198.93 284.74) rotate(14.46)"> </text><text class="m-cls-3" transform="translate(206.39 286.66) rotate(12.1)"> </text><text class="m-cls-3" transform="translate(213.95 288.28) rotate(9.51)">-</text><text class="m-cls-3" transform="translate(222.98 289.77) rotate(6.94)"> </text><text class="m-cls-3" transform="matrix(1, 0.08, -0.08, 1, 230.6, 290.69)"> </text><text class="m-cls-3" transform="translate(238.28 291.31) rotate(2.08)">-</text><text class="m-cls-3" transform="matrix(1, -0.01, 0.01, 1, 247.39, 291.6)"> </text><text class="m-cls-3" transform="translate(252.62 290.16) rotate(23.88)"> </text><text class="m-cls-3" transform="matrix(0.53, 0.85, -0.85, 0.53, 255.85, 289.26)"> </text><text class="m-cls-3" transform="translate(258.07 289.96) rotate(90.99)"> </text><text class="m-cls-3" transform="matrix(-0.59, 0.81, -0.81, -0.59, 258.73, 292.08)">-</text><text class="m-cls-3" transform="translate(254.35 296.97) rotate(150.08)"> </text><text class="m-cls-3" transform="matrix(-0.89, 0.46, -0.46, -0.89, 248.26, 300.49)"> </text><text class="m-cls-3" transform="translate(242.06 303.71) rotate(155.68)">-</text><text class="m-cls-3" transform="translate(234.36 307.17) rotate(158.61)"> </text><text class="m-cls-3" transform="matrix(-0.95, 0.32, -0.32, -0.95, 227.84, 309.73)"> </text><text class="m-cls-3" transform="translate(221.2 312.01) rotate(164.16)">-</text><text class="m-cls-3" transform="translate(213.08 314.3) rotate(167.06)"> </text><text class="m-cls-3" transform="translate(206.24 315.88) rotate(169.7)"> </text><text class="m-cls-3" transform="translate(199.36 317.15) rotate(172.59)">-</text><text class="m-cls-3" transform="translate(190.98 318.23) rotate(175.48)"> </text><text class="m-cls-3" transform="translate(184 318.78) rotate(178.11)"> </text><text class="m-cls-3" transform="translate(177 319.04) rotate(-179.01)">-</text><text class="m-cls-3" transform="matrix(-1, -0.07, 0.07, -1, 168.54, 318.88)"> </text><text class="m-cls-3" transform="translate(161.55 318.41) rotate(-173.49)"> </text><text class="m-cls-3" transform="translate(154.59 317.64) rotate(-170.58)">-</text><text class="m-cls-3" transform="matrix(-0.98, -0.21, 0.21, -0.98, 146.26, 316.25)"> </text><text class="m-cls-3" transform="translate(139.41 314.75) rotate(-164.99)"> </text><text class="m-cls-3" transform="matrix(-0.95, -0.31, 0.31, -0.95, 132.65, 312.96)">-</text><text class="m-cls-3" transform="translate(124.62 310.35) rotate(-159.14)"> </text><text class="m-cls-3" transform="translate(118.05 307.86) rotate(-156.48)"> </text><text class="m-cls-3" transform="matrix(-0.9, -0.45, 0.45, -0.9, 111.62, 305.08)">-</text><text class="m-cls-3" transform="translate(104.07 301.31) rotate(-150.66)"> </text><text class="m-cls-3" transform="translate(97.95 297.88) rotate(-148.02)"> </text><text class="m-cls-3" transform="translate(92 294.19) rotate(-145.13)">-</text><text class="m-cls-3" transform="translate(85.08 289.35) rotate(-142.24)"> </text><text class="m-cls-3" transform="matrix(-0.76, -0.65, 0.65, -0.76, 79.51, 285.05)"> </text><text class="m-cls-3" transform="matrix(-0.73, -0.69, 0.69, -0.73, 74.16, 280.53)">-</text><text class="m-cls-3" transform="translate(68.03 274.74) rotate(-133.86)"> </text><text class="m-cls-3" transform="matrix(-0.66, -0.75, 0.75, -0.66, 63.18, 269.69)"> </text><text class="m-cls-3" transform="translate(58.54 264.44) rotate(-128.37)">-</text><text class="m-cls-3" transform="matrix(-0.58, -0.81, 0.81, -0.58, 53.31, 257.81)"> </text><text class="m-cls-3" transform="matrix(-0.54, -0.84, 0.84, -0.54, 49.23, 252.09)"> </text><text class="m-cls-3" transform="translate(45.4 246.22) rotate(-119.95)">-</text><text class="m-cls-3" transform="translate(41.2 238.9) rotate(-117.04)"> </text><text class="m-cls-3" transform="translate(38 232.68) rotate(-114.13)">-</text><path id="moon-stroke-inner" class="m-cls-4" d="M323.71,254.38A168.46,168.46,0,0,1,111.51,6.52"/></svg>