<svg id="Star" xmlns="http://www.w3.org/2000/svg" viewBox="0 0 464.55 457.05"><defs><style>.cls-1{fill:#fff200;}.cls-2,.cls-3{fill:none;stroke:#231f20;stroke-miterlimit:10;}.cls-2{stroke-width:16px;}.cls-3{stroke-width:8px;}.cls-4{font-size:30px;fill:#231f20;font-family:ArialMT, Arial;}</style></defs><title>star-icon</title><polygon id="star-fill" class="cls-1" points="212.25 357.35 71.84 413.15 112.96 267.76 16.51 151.47 167.48 145.65 248.28 17.98 300.47 159.76 446.86 197.16 328.14 290.61 337.82 441.39 212.25 357.35"/><polygon id="large-star-stroke" class="cls-2" points="212.25 357.35 71.84 413.15 112.96 267.76 16.51 151.47 167.48 145.65 248.28 17.98 300.47 159.76 446.86 197.16 328.14 290.61 337.82 441.39 212.25 357.35"/><polygon id="small-star-stroke" class="cls-3" points="215.02 312.41 130.39 346.05 155.17 258.41 97.03 188.31 188.04 184.81 236.74 107.85 268.2 193.32 356.44 215.85 284.88 272.18 290.71 363.07 215.02 312.41"/><text id="star-type" class="cls-4" transform="translate(171.18 178.6) rotate(-2.21)"> </text><text class="cls-4" transform="translate(187.77 169.34) rotate(-57.67)"> </text><text class="cls-4" transform="matrix(0.53, -0.85, 0.85, 0.53, 192.23, 162.3)"> </text><text class="cls-4" transform="translate(196.69 155.24) rotate(-57.67)">s</text><text class="cls-4" transform="translate(204.72 142.57) rotate(-57.67)">t</text><text class="cls-4" transform="translate(209.16 135.54) rotate(-57.67)">a</text><text class="cls-4" transform="translate(218.1 121.42) rotate(-57.67)">r</text><text class="cls-4" transform="matrix(0.53, -0.84, 0.84, 0.53, 223.43, 112.99)"> </text><text class="cls-4" transform="matrix(0.53, -0.85, 0.85, 0.53, 227.89, 105.94)"> </text><text class="cls-4" transform="matrix(0.53, -0.85, 0.85, 0.53, 232.35, 98.9)"> </text><text class="cls-4" transform="translate(236.41 87.45) rotate(69.8)"> </text><text class="cls-4" transform="translate(239.28 95.27) rotate(69.79)"> </text><text class="cls-4" transform="translate(242.16 103.08) rotate(69.79)"> </text><text class="cls-4" transform="translate(245.04 110.91) rotate(69.79)"> </text><text class="cls-4" transform="translate(247.92 118.73) rotate(69.79)">s</text><text class="cls-4" transform="matrix(0.35, 0.94, -0.94, 0.35, 253.1, 132.81)">t</text><text class="cls-4" transform="translate(255.99 140.64) rotate(69.79)">a</text><text class="cls-4" transform="translate(261.75 156.3) rotate(69.79)">r</text><text class="cls-4" transform="translate(265.2 165.69) rotate(69.79)"> </text><text class="cls-4" transform="translate(268.11 173.59) rotate(69.79)"> </text><text class="cls-4" transform="matrix(0.35, 0.94, -0.94, 0.35, 271.26, 182.13)"> </text><text class="cls-4" transform="translate(287.82 191.55) rotate(14.33)"> </text><text class="cls-4" transform="matrix(0.97, 0.25, -0.25, 0.97, 295.91, 193.61)">s</text><text class="cls-4" transform="translate(310.44 197.32) rotate(14.33)">t</text><text class="cls-4" transform="translate(318.52 199.39) rotate(14.33)">a</text><text class="cls-4" transform="matrix(0.97, 0.25, -0.25, 0.97, 334.69, 203.52)">r</text><text class="cls-4" transform="translate(344.37 205.99) rotate(14.33)"> </text><text class="cls-4" transform="translate(352.44 208.05) rotate(14.33)"> </text><text class="cls-4" transform="matrix(0.97, 0.25, -0.25, 0.97, 360.52, 210.12)"> </text><text class="cls-4" transform="translate(368.61 212.18) rotate(14.33)"> </text><text class="cls-4" transform="matrix(-0.79, 0.62, -0.62, -0.79, 372.89, 214.16)"> </text><text class="cls-4" transform="matrix(-0.79, 0.62, -0.62, -0.79, 366.33, 219.32)"> </text><text class="cls-4" transform="matrix(-0.79, 0.62, -0.62, -0.79, 359.8, 224.46)"> </text><text class="cls-4" transform="matrix(-0.79, 0.62, -0.62, -0.79, 353.25, 229.62)"> </text><text class="cls-4" transform="translate(346.7 234.78) rotate(141.79)">s</text><text class="cls-4" transform="matrix(-0.79, 0.62, -0.62, -0.79, 334.91, 244.05)">t</text><text class="cls-4" transform="translate(328.35 249.22) rotate(141.79)">a</text><text class="cls-4" transform="matrix(-0.79, 0.62, -0.62, -0.79, 315.24, 259.53)">r</text><text class="cls-4" transform="translate(307.38 265.72) rotate(141.79)"> </text><text class="cls-4" transform="matrix(-0.79, 0.62, -0.62, -0.79, 300.52, 271.12)"> </text><text class="cls-4" transform="translate(293.05 288.69) rotate(86.33)"> </text><text class="cls-4" transform="translate(293.58 297.01) rotate(86.33)">s</text><text class="cls-4" transform="translate(294.54 311.98) rotate(86.33)">t</text><text class="cls-4" transform="translate(295.08 320.29) rotate(86.33)">a</text><text class="cls-4" transform="translate(296.15 336.95) rotate(86.33)">r</text><text class="cls-4" transform="translate(296.79 346.92) rotate(86.33)"> </text><text class="cls-4" transform="translate(297.32 355.24) rotate(86.33)"> </text><text class="cls-4" transform="translate(297.85 363.57) rotate(86.33)"> </text><text class="cls-4" transform="translate(298.39 371.87) rotate(86.33)"> </text><text class="cls-4" transform="matrix(-0.83, -0.56, 0.56, -0.83, 301.22, 382.45)"> </text><text class="cls-4" transform="translate(294.29 377.82) rotate(-146.21)"> </text><text class="cls-4" transform="translate(287.36 373.18) rotate(-146.21)"> </text><text class="cls-4" transform="matrix(-0.83, -0.56, 0.56, -0.83, 280.45, 368.55)">s<tspan x="15.01" y="0">t</tspan></text><text class="cls-4" transform="translate(261.03 355.56) rotate(-146.21)">a</text><text class="cls-4" transform="translate(247.17 346.28) rotate(-146.21)">r</text><text class="cls-4" transform="matrix(-0.83, -0.56, 0.56, -0.83, 238.87, 340.73)"> </text><text class="cls-4" transform="matrix(-0.83, -0.56, 0.56, -0.83, 231.95, 336.1)"> </text><text class="cls-4" transform="matrix(-0.83, -0.56, 0.56, -0.83, 224.91, 331.38)"> </text><text class="cls-4" transform="translate(206.22 325.98) rotate(158.33)"> </text><text class="cls-4" transform="translate(198.38 329.09) rotate(158.33)"> </text><text class="cls-4" transform="matrix(-0.93, 0.37, -0.37, -0.93, 190.65, 332.16)">s</text><text class="cls-4" transform="translate(176.72 337.7) rotate(158.33)">t</text><text class="cls-4" transform="matrix(-0.93, 0.37, -0.37, -0.93, 168.97, 340.78)">a</text><text class="cls-4" transform="matrix(-0.93, 0.37, -0.37, -0.93, 153.47, 346.94)">r</text><text class="cls-4" transform="matrix(-0.93, 0.37, -0.37, -0.93, 144.18, 350.63)"> </text><text class="cls-4" transform="translate(136.43 353.71) rotate(158.33)"> </text><text class="cls-4" transform="translate(128.68 356.79) rotate(158.33)"> </text><text class="cls-4" transform="matrix(-0.93, 0.37, -0.37, -0.93, 121.37, 359.69)"> </text><text class="cls-4" transform="translate(117.08 359.92) rotate(-74.21)"> </text><text class="cls-4" transform="translate(119.34 351.92) rotate(-74.21)"> </text><text class="cls-4" transform="matrix(0.27, -0.96, 0.96, 0.27, 121.61, 343.88)"> </text><text class="cls-4" transform="matrix(0.27, -0.96, 0.96, 0.27, 123.88, 335.85)">s</text><text class="cls-4" transform="translate(127.96 321.44) rotate(-74.21)">t</text><text class="cls-4" transform="translate(130.23 313.4) rotate(-74.21)">a</text><text class="cls-4" transform="translate(134.77 297.35) rotate(-74.21)">r</text><text class="cls-4" transform="translate(137.49 287.73) rotate(-74.21)"> </text><text class="cls-4" transform="translate(139.76 279.72) rotate(-74.21)"> </text><text class="cls-4" transform="matrix(0.27, -0.96, 0.96, 0.27, 142.16, 271.22)"> </text><text class="cls-4" transform="translate(137.29 252.85) rotate(-129.67)"> </text><text class="cls-4" transform="translate(131.97 246.44) rotate(-129.67)"> </text><text class="cls-4" transform="matrix(-0.64, -0.77, 0.77, -0.64, 126.65, 240.02)">s</text><text class="cls-4" transform="matrix(-0.64, -0.77, 0.77, -0.64, 117.08, 228.48)">t</text><text class="cls-4" transform="translate(111.75 222.06) rotate(-129.67)">a</text><text class="cls-4" transform="matrix(-0.64, -0.77, 0.77, -0.64, 101.09, 209.21)">r<tspan x="9.97" y="0"> </tspan></text><text class="cls-4" transform="translate(89.4 195.11) rotate(-129.67)"> </text><text class="cls-4" transform="matrix(-0.64, -0.77, 0.77, -0.64, 84.08, 188.7)"> </text><text class="cls-4" transform="translate(76.57 182.25) rotate(-2.21)"> </text><text class="cls-4" transform="matrix(1, -0.04, 0.04, 1, 84.9, 181.92)"> </text><text class="cls-4" transform="translate(93.21 181.6) rotate(-2.21)"> </text><text class="cls-4" transform="translate(101.56 181.28) rotate(-2.21)">s</text><text class="cls-4" transform="translate(116.53 180.71) rotate(-2.21)">t</text><text class="cls-4" transform="translate(124.87 180.38) rotate(-2.21)">a</text><text class="cls-4" transform="translate(141.55 179.74) rotate(-2.21)">r</text></svg>