<svg id="sun" xmlns="http://www.w3.org/2000/svg" viewBox="0 0 571.22 572.22"><defs><style>.sun-cls-1{fill:#fff200;}.sun-cls-2{fill:none;stroke:#f7941d;stroke-miterlimit:10;stroke-width:9px;}.sun-cls-3{font-size:55px;fill:#f7941d;font-family:ArialMT, Arial;}</style></defs><title>sun-icon</title><circle id="sun-fill" class="sun-cls-1" cx="284.07" cy="285.85" r="152.13"/><circle id="sun-stroke" class="sun-cls-2" cx="284.07" cy="285.85" r="152.13"/><text id="sun-dots" class="sun-cls-3" transform="translate(151.72 286.21) rotate(-86.88)">.</text><text class="sun-cls-3" transform="translate(152.44 271.94) rotate(-80.69)">.</text><text class="sun-cls-3" transform="translate(154.7 257.84) rotate(-74.46)">.</text><text class="sun-cls-3" transform="translate(158.47 244.07) rotate(-68.22)">.</text><text class="sun-cls-3" transform="translate(163.72 230.79) rotate(-62.01)">.</text><text class="sun-cls-3" transform="translate(170.38 218.14) rotate(-55.83)">.</text><text class="sun-cls-3" transform="translate(178.35 206.31) rotate(-49.69)">.</text><text class="sun-cls-3" transform="translate(187.56 195.37) rotate(-43.55)">.</text><text class="sun-cls-3" transform="matrix(0.79, -0.61, 0.61, 0.79, 197.88, 185.48)">.</text><text class="sun-cls-3" transform="matrix(0.85, -0.52, 0.52, 0.85, 209.2, 176.76)">.</text><text class="sun-cls-3" transform="matrix(0.91, -0.42, 0.42, 0.91, 221.38, 169.3)">.</text><text class="sun-cls-3" transform="translate(234.29 163.21) rotate(-18.83)">.</text><text class="sun-cls-3" transform="matrix(0.98, -0.22, 0.22, 0.98, 247.78, 158.55)">.</text><text class="sun-cls-3" transform="matrix(0.99, -0.11, 0.11, 0.99, 261.71, 155.39)">.</text><text class="sun-cls-3" transform="matrix(1, -0.02, 0.02, 1, 275.79, 153.84)">.</text><text class="sun-cls-3" transform="matrix(0.99, 0.1, -0.1, 0.99, 290.19, 153.64)">.</text><text class="sun-cls-3" transform="matrix(0.98, 0.21, -0.21, 0.98, 304.4, 155.06)">.</text><text class="sun-cls-3" transform="translate(318.35 158) rotate(18.37)">.</text><text class="sun-cls-3" transform="translate(331.92 162.45) rotate(24.59)">.</text><text class="sun-cls-3" transform="translate(344.94 168.35) rotate(30.79)">.</text><text class="sun-cls-3" transform="translate(357.24 175.62) rotate(36.96)">.</text><text class="sun-cls-3" transform="translate(368.68 184.16) rotate(43.09)">.</text><text class="sun-cls-3" transform="translate(379.16 193.88) rotate(49.23)">.</text><text class="sun-cls-3" transform="matrix(0.57, 0.82, -0.82, 0.57, 388.53, 204.67)">.</text><text class="sun-cls-3" transform="translate(396.69 216.4) rotate(61.55)">.</text><text class="sun-cls-3" transform="translate(403.54 228.93) rotate(67.76)">.</text><text class="sun-cls-3" transform="translate(409 242.13) rotate(74)">.</text><text class="sun-cls-3" transform="translate(412.98 255.82) rotate(80.23)">.</text><text class="sun-cls-3" transform="translate(415.46 269.88) rotate(86.42)">.</text><text class="sun-cls-3" transform="matrix(-0.04, 1, -1, -0.04, 416.4, 284.16)">.</text><text class="sun-cls-3" transform="translate(415.82 298.41) rotate(98.72)">.</text><text class="sun-cls-3" transform="matrix(-0.26, 0.97, -0.97, -0.26, 413.71, 312.53)">.</text><text class="sun-cls-3" transform="translate(410.08 326.35) rotate(111.19)">.</text><text class="sun-cls-3" transform="translate(404.97 339.67) rotate(117.4)">.</text><text class="sun-cls-3" transform="matrix(-0.55, 0.83, -0.83, -0.55, 398.43, 352.39)">.</text><text class="sun-cls-3" transform="translate(390.58 364.31) rotate(129.74)">.</text><text class="sun-cls-3" transform="translate(381.49 375.34) rotate(135.87)">.</text><text class="sun-cls-3" transform="translate(371.26 385.33) rotate(142.01)">.</text><text class="sun-cls-3" transform="translate(360.04 394.16) rotate(148.17)">.</text><text class="sun-cls-3" transform="matrix(-0.9, 0.43, -0.43, -0.9, 347.94, 401.74)">.</text><text class="sun-cls-3" transform="translate(335.09 407.97) rotate(160.58)">.</text><text class="sun-cls-3" transform="translate(321.63 412.77) rotate(166.82)">.</text><text class="sun-cls-3" transform="matrix(-0.99, 0.12, -0.12, -0.99, 307.76, 416.07)">.</text><text class="sun-cls-3" transform="translate(293.65 417.83) rotate(179.07)">.</text><text class="sun-cls-3" transform="matrix(-1, -0.09, 0.09, -1, 279.27, 418.11)">.</text><text class="sun-cls-3" transform="translate(265.06 416.83) rotate(-168.45)">.</text><text class="sun-cls-3" transform="translate(251.08 414.04) rotate(-162.22)">.</text><text class="sun-cls-3" transform="translate(237.45 409.72) rotate(-155.99)">.</text><text class="sun-cls-3" transform="translate(224.39 403.96) rotate(-149.79)">.</text><text class="sun-cls-3" transform="translate(212.01 396.81) rotate(-143.62)">.</text><text class="sun-cls-3" transform="matrix(-0.74, -0.68, 0.68, -0.74, 200.48, 388.39)">.</text><text class="sun-cls-3" transform="matrix(-0.66, -0.75, 0.75, -0.66, 189.91, 378.77)">.</text><text class="sun-cls-3" transform="matrix(-0.58, -0.82, 0.82, -0.58, 180.44, 368.08)">.</text><text class="sun-cls-3" transform="translate(172.16 356.44) rotate(-119.03)">.</text><text class="sun-cls-3" transform="translate(165.18 343.99) rotate(-112.83)">.</text><text class="sun-cls-3" transform="matrix(-0.29, -0.96, 0.96, -0.29, 159.59, 330.84)">.</text><text class="sun-cls-3" transform="translate(155.46 317.18) rotate(-100.36)">.</text><text class="sun-cls-3" transform="translate(152.84 303.15) rotate(-94.16)">.</text><g id="sun-rays-fill"><polygon class="sun-cls-1" points="284.06 0 312.45 49.16 340.83 98.31 284.06 98.31 227.31 98.31 255.69 49.16 284.06 0"/><polygon class="sun-cls-1" points="82.7 82.33 137.53 97.02 192.35 111.71 152.22 151.84 112.08 191.98 97.39 137.15 82.7 82.33"/><polygon class="sun-cls-1" points="0 283.15 49.16 254.77 98.31 226.39 98.31 283.15 98.31 339.91 49.16 311.53 0 283.15"/><polygon class="sun-cls-1" points="83.33 486.52 98.02 431.69 112.71 376.86 152.84 417 192.98 457.14 138.15 471.83 83.33 486.52"/><polygon class="sun-cls-1" points="283.15 572.22 254.77 523.06 226.39 473.91 283.15 473.91 339.91 473.91 311.53 523.06 283.15 572.22"/><polygon class="sun-cls-1" points="486.52 488.89 431.69 474.2 376.86 459.51 417 419.38 457.14 379.24 471.83 434.07 486.52 488.89"/><polygon class="sun-cls-1" points="571.22 288.06 522.06 316.45 472.91 344.83 472.91 288.06 472.91 231.31 522.06 259.69 571.22 288.06"/><polygon class="sun-cls-1" points="487.89 82.7 473.2 137.53 458.51 192.35 418.38 152.22 378.24 112.08 433.07 97.39 487.89 82.7"/></g></svg>