<svg id="basic-tree" xmlns="http://www.w3.org/2000/svg" viewBox="0 0 233.66 490.23"><defs><style>.cls-1{fill:#00a651;}.cls-2,.cls-4{fill:none;stroke:#231f20;stroke-miterlimit:10;}.cls-2{stroke-width:6px;}.cls-3{font-size:26px;fill:#231f20;font-family:MyriadPro-Regular, Myriad Pro;}.cls-4{stroke-width:14px;}</style></defs><title>tree-icon</title><ellipse id="tree-fill" class="cls-1" cx="116.83" cy="175.34" rx="113.83" ry="172.34"/><ellipse id="tree-stoke" class="cls-2" cx="116.83" cy="175.34" rx="113.83" ry="172.34"/><text id="tree-type" class="cls-3" transform="translate(25.62 139.44) rotate(-80.31)">t</text><text class="cls-3" transform="matrix(0.21, -0.98, 0.98, 0.21, 27.03, 131.12)">r</text><text class="cls-3" transform="translate(28.62 123.25) rotate(-75.37)">e</text><text class="cls-3" transform="translate(31.83 110.9) rotate(-71.74)">e</text><text class="cls-3" transform="translate(35.92 98.77) rotate(-69.01)"> </text><text class="cls-3" transform="translate(37.85 93.73) rotate(-67.31)"> </text><text class="cls-3" transform="translate(39.92 88.77) rotate(-65.56)"> </text><text class="cls-3" transform="matrix(0.44, -0.9, 0.9, 0.44, 42.14, 83.87)"> </text><text class="cls-3" transform="translate(44.52 79.06) rotate(-61.86)"> </text><text class="cls-3" transform="matrix(0.5, -0.87, 0.87, 0.5, 47.03, 74.34)"> </text><text class="cls-3" transform="translate(49.66 69.72) rotate(-57.3)">t</text><text class="cls-3" transform="matrix(0.59, -0.81, 0.81, 0.59, 54.16, 62.69)">r</text><text class="cls-3" transform="matrix(0.65, -0.76, 0.76, 0.65, 58.71, 56.23)">e</text><text class="cls-3" transform="matrix(0.74, -0.67, 0.67, 0.74, 66.87, 46.72)">e</text><text class="cls-3" transform="translate(76.27 38.35) rotate(-36.74)"> </text><text class="cls-3" transform="translate(80.45 35.22) rotate(-33.04)"> </text><text class="cls-3" transform="translate(84.82 32.36) rotate(-29.05)"> </text><text class="cls-3" transform="matrix(0.91, -0.42, 0.42, 0.91, 89.34, 29.83)"> </text><text class="cls-3" transform="translate(94.03 27.65) rotate(-20.27)"> </text><text class="cls-3" transform="matrix(0.97, -0.24, 0.24, 0.97, 98.73, 25.79)">t</text><text class="cls-3" transform="matrix(0.99, -0.11, 0.11, 0.99, 106.47, 23.8)">r</text><text class="cls-3" transform="translate(113.93 22.7) rotate(3.68)">e</text><text class="cls-3" transform="translate(126.07 23.4) rotate(15.68)">e</text><text class="cls-3" transform="matrix(0.92, 0.4, -0.4, 0.92, 137.97, 26.98)"> </text><text class="cls-3" transform="translate(142.74 29.05) rotate(27.91)"> </text><text class="cls-3" transform="translate(147.33 31.47) rotate(31.95)"> </text><text class="cls-3" transform="translate(151.76 34.23) rotate(35.73)"> </text><text class="cls-3" transform="matrix(0.77, 0.63, -0.63, 0.77, 156.03, 37.29)"> </text><text class="cls-3" transform="translate(160.09 40.52) rotate(43.36)">t</text><text class="cls-3" transform="matrix(0.67, 0.74, -0.74, 0.67, 166.11, 46.2)">r</text><text class="cls-3" transform="matrix(0.61, 0.8, -0.8, 0.61, 171.48, 51.97)">e</text><text class="cls-3" transform="translate(179.13 62.02) rotate(57.97)">e</text><text class="cls-3" transform="translate(185.81 72.88) rotate(61.32)"> </text><text class="cls-3" transform="translate(188.39 77.61) rotate(63.23)"> </text><text class="cls-3" transform="translate(190.81 82.39) rotate(65.05)"> </text><text class="cls-3" transform="matrix(0.39, 0.92, -0.92, 0.39, 193.08, 87.27)"> </text><text class="cls-3" transform="translate(195.2 92.22) rotate(68.54)"> </text><text class="cls-3" transform="matrix(0.34, 0.94, -0.94, 0.34, 197.17, 97.23)"> </text><text class="cls-3" transform="translate(199.01 102.25) rotate(72.24)">t</text><text class="cls-3" transform="translate(201.58 110.26) rotate(74.63)">r</text><text class="cls-3" transform="translate(203.77 118) rotate(77.44)">e</text><text class="cls-3" transform="translate(206.55 130.46) rotate(80.75)">e</text><text class="cls-3" transform="translate(208.55 143.16) rotate(83.02)"> </text><text class="cls-3" transform="translate(209.21 148.54) rotate(84.34)"> </text><text class="cls-3" transform="translate(209.74 153.91) rotate(85.63)"> </text><text class="cls-3" transform="translate(210.16 159.32) rotate(86.92)"> </text><text class="cls-3" transform="translate(210.45 164.72) rotate(88.18)"> </text><text class="cls-3" transform="translate(210.64 170.11) rotate(89.71)">t</text><text class="cls-3" transform="matrix(-0.03, 1, -1, -0.03, 210.68, 178.56)">r</text><text class="cls-3" transform="translate(210.49 186.63) rotate(94.15)">e</text><text class="cls-3" transform="translate(209.57 199.39) rotate(97.25)">e</text><text class="cls-3" transform="matrix(-0.17, 0.99, -0.99, -0.17, 207.88, 212.12)"> </text><text class="cls-3" transform="translate(206.99 217.44) rotate(100.91)"> </text><text class="cls-3" transform="matrix(-0.21, 0.98, -0.98, -0.21, 205.97, 222.75)"> </text><text class="cls-3" transform="translate(204.82 228.02) rotate(103.77)"> </text><text class="cls-3" transform="translate(203.54 233.27) rotate(105.26)"> </text><text class="cls-3" transform="matrix(-0.29, 0.96, -0.96, -0.29, 202.12, 238.47)"> </text><text class="cls-3" transform="translate(200.6 243.61) rotate(108.8)">t</text><text class="cls-3" transform="translate(197.89 251.58) rotate(111.34)">r</text><text class="cls-3" transform="translate(195.06 259.07) rotate(114.65)">e</text><text class="cls-3" transform="matrix(-0.49, 0.87, -0.87, -0.49, 189.78, 270.61)">e</text><text class="cls-3" transform="translate(183.5 281.71) rotate(122.44)"> </text><text class="cls-3" transform="matrix(-0.57, 0.82, -0.82, -0.57, 180.63, 286.23)"> </text><text class="cls-3" transform="translate(177.61 290.63) rotate(126.87)"> </text><text class="cls-3" transform="translate(174.41 294.89) rotate(129.32)"> </text><text class="cls-3" transform="matrix(-0.67, 0.74, -0.74, -0.67, 171.05, 299.01)"> </text><text class="cls-3" transform="translate(167.6 302.94) rotate(135.61)">t</text><text class="cls-3" transform="translate(161.73 308.71) rotate(140.52)">r</text><text class="cls-3" transform="translate(155.88 313.78) rotate(147.4)">e</text><text class="cls-3" transform="matrix(-0.92, 0.39, -0.39, -0.92, 145.56, 320.49)">e</text><text class="cls-3" transform="matrix(-0.97, 0.25, -0.25, -0.97, 134.03, 325.08)"> </text><text class="cls-3" transform="translate(129.08 326.4) rotate(170.29)"> </text><text class="cls-3" transform="translate(124.03 327.28) rotate(175.44)"> </text><text class="cls-3" transform="translate(118.97 327.71) rotate(-179.28)"> </text><text class="cls-3" transform="translate(113.81 327.67) rotate(-174.12)"> </text><text class="cls-3" transform="matrix(-0.98, -0.19, 0.19, -0.98, 108.71, 327.16)"> </text><text class="cls-3" transform="translate(103.76 326.3) rotate(-162.67)">t</text><text class="cls-3" transform="matrix(-0.91, -0.41, 0.41, -0.91, 96.04, 323.92)">r</text><text class="cls-3" transform="translate(88.99 320.92) rotate(-147.6)">e</text><text class="cls-3" transform="translate(78.51 314.3) rotate(-139.18)">e</text><text class="cls-3" transform="matrix(-0.7, -0.72, 0.72, -0.7, 69.06, 305.92)"> </text><text class="cls-3" transform="matrix(-0.66, -0.75, 0.75, -0.66, 65.37, 302.12)"> </text><text class="cls-3" transform="translate(61.85 298.11) rotate(-128.68)"> </text><text class="cls-3" transform="translate(58.53 293.96) rotate(-126.27)"> </text><text class="cls-3" transform="translate(55.38 289.67) rotate(-124.03)"> </text><text class="cls-3" transform="matrix(-0.53, -0.85, 0.85, -0.53, 52.37, 285.22)"> </text><text class="cls-3" transform="translate(49.53 280.74) rotate(-119.35)">t</text><text class="cls-3" transform="matrix(-0.44, -0.9, 0.9, -0.44, 45.42, 273.42)">r</text><text class="cls-3" transform="matrix(-0.39, -0.92, 0.92, -0.39, 41.8, 266.32)">e</text><text class="cls-3" transform="translate(36.83 254.61) rotate(-109.04)">e</text><text class="cls-3" transform="translate(32.73 242.46) rotate(-106.4)"> </text><text class="cls-3" transform="matrix(-0.26, -0.97, 0.97, -0.26, 31.2, 237.28)"> </text><text class="cls-3" transform="translate(29.81 232.04) rotate(-103.4)"> </text><text class="cls-3" transform="translate(28.56 226.81) rotate(-101.97)"> </text><text class="cls-3" transform="translate(27.44 221.51) rotate(-100.55)"> </text><text class="cls-3" transform="translate(26.45 216.2) rotate(-99.17)"> </text><text class="cls-3" transform="matrix(-0.13, -0.99, 0.99, -0.13, 25.56, 210.88)">t</text><text class="cls-3" transform="matrix(-0.09, -1, 1, -0.09, 24.47, 202.53)">r</text><text class="cls-3" transform="translate(23.66 194.51) rotate(-92.94)">e</text><text class="cls-3" transform="translate(22.97 181.73) rotate(-89.71)">e</text><text class="cls-3" transform="translate(23.07 168.85) rotate(-87.86)"> </text><line id="trunk" class="cls-4" x1="116.83" y1="490.23" x2="116.83" y2="111.51"/><line id="branch-3" class="cls-2" x1="58.32" y1="217.89" x2="116.83" y2="285.98"/><line id="branch-2" class="cls-2" x1="162.57" y1="175.34" x2="116.83" y2="217.89"/><line id="branch-1" class="cls-2" x1="92.36" y1="126.4" x2="116.83" y2="164.7"/></svg>