<svg id="violet" xmlns="http://www.w3.org/2000/svg" viewBox="0 0 391.04 592.66"><defs><style>.v-cls-1{fill:#9e1f63;}.v-cls-2{fill:none;stroke:#231f20;stroke-miterlimit:10;stroke-width:6px;}.v-cls-3{font-size:35px;fill:#231f20;font-family:ArialMT, Arial;}.v-cls-4{fill:#009444;}</style></defs><title>violet-icon</title><path id="violet-fill" class="v-cls-1" d="M295.74,5.15,252.07,80,195.91,6.58,147,75.7,102.31,5.15c-32.62,40.68-60.95,104-60.95,170.69,0,122.54,69.49,221.88,155.21,221.88s155.21-99.34,155.21-221.88c0-68.63-21.8-130-56-170.69"/><path id="violet-stroke" class="v-cls-2" d="M295.74,5.15,252.07,80,195.91,6.58,147,75.7,102.31,5.15c-32.62,40.68-60.95,104-60.95,170.69,0,122.54,69.49,221.88,155.21,221.88s155.21-99.34,155.21-221.88c0-68.63-21.8-130-56-170.69"/><text id="violet-type" class="v-cls-3" transform="matrix(0.53, 0.85, -0.85, 0.53, 129.9, 104.87)">.</text><text class="v-cls-3" transform="matrix(0.53, 0.85, -0.85, 0.53, 135.2, 113.24)"> </text><text class="v-cls-3" transform="translate(158.77 110.91) rotate(-54.69)">.</text><text class="v-cls-3" transform="translate(164.39 102.97) rotate(-54.69)"> </text><text class="v-cls-3" transform="translate(170.01 95.04) rotate(-54.69)">.</text><text class="v-cls-3" transform="matrix(0.58, -0.82, 0.82, 0.58, 175.63, 87.1)"> </text><text class="v-cls-3" transform="matrix(0.58, -0.82, 0.82, 0.58, 181.24, 79.18)">.</text><text class="v-cls-3" transform="translate(186.86 71.25) rotate(-54.69)"> </text><text class="v-cls-3" transform="matrix(0.77, -0.64, 0.64, 0.77, 191.03, 63.36)">.</text><text class="v-cls-3" transform="translate(193.68 57.08) rotate(26.28)"> </text><text class="v-cls-3" transform="translate(199.98 61.29) rotate(52.59)">.</text><text class="v-cls-3" transform="translate(205.87 69) rotate(52.6)"> </text><text class="v-cls-3" transform="translate(211.79 76.74) rotate(52.59)">.</text><text class="v-cls-3" transform="translate(217.69 84.45) rotate(52.59)"> </text><text class="v-cls-3" transform="matrix(0.61, 0.79, -0.79, 0.61, 223.6, 92.18)">.</text><text class="v-cls-3" transform="translate(229.5 99.9) rotate(52.6)"> </text><text class="v-cls-3" transform="translate(235.42 107.64) rotate(52.59)">.</text><text class="v-cls-3" transform="matrix(0.61, 0.79, -0.79, 0.61, 241.33, 115.36)"> </text><text class="v-cls-3" transform="translate(248.42 124.63) rotate(52.59)">.</text><text class="v-cls-3" transform="matrix(0.5, -0.86, 0.86, 0.5, 269.58, 109.53)"> </text><text class="v-cls-3" transform="matrix(0.5, -0.86, 0.86, 0.5, 274.47, 101.15)">.</text><text class="v-cls-3" transform="translate(279.37 92.75) rotate(-59.74)"> </text><text class="v-cls-3" transform="matrix(0.5, -0.86, 0.86, 0.5, 284.27, 84.35)">.</text><text class="v-cls-3" transform="matrix(0.5, -0.86, 0.86, 0.5, 289.18, 75.93)"> </text><text class="v-cls-3" transform="matrix(0.5, -0.86, 0.86, 0.5, 294.08, 67.53)">.</text><text class="v-cls-3" transform="matrix(0.41, 0.91, -0.91, 0.41, 297.75, 63.56)"> </text><text class="v-cls-3" transform="translate(301.64 72.18) rotate(68.15)">.</text><text class="v-cls-3" transform="translate(305.17 80.96) rotate(70.49)"> </text><text class="v-cls-3" transform="translate(308.34 89.91) rotate(72.74)">.</text><text class="v-cls-3" transform="translate(311.16 98.97) rotate(74.91)"> </text><text class="v-cls-3" transform="translate(313.64 108.15) rotate(77.01)">.</text><text class="v-cls-3" transform="translate(315.78 117.42) rotate(79.06)"> </text><text class="v-cls-3" transform="translate(317.6 126.79) rotate(81.07)">.</text><text class="v-cls-3" transform="translate(319.08 136.18) rotate(83.02)"> </text><text class="v-cls-3" transform="matrix(0.09, 1, -1, 0.09, 320.24, 145.62)">.</text><text class="v-cls-3" transform="translate(321.08 155.11) rotate(86.86)"> </text><text class="v-cls-3" transform="matrix(0.02, 1, -1, 0.02, 321.6, 164.62)">.</text><text class="v-cls-3" transform="matrix(-0.01, 1, -1, -0.01, 321.81, 174.17)"> </text><text class="v-cls-3" transform="matrix(-0.04, 1, -1, -0.04, 321.72, 183.68)">.</text><text class="v-cls-3" transform="translate(321.31 193.21) rotate(94.35)"> </text><text class="v-cls-3" transform="translate(320.59 202.7) rotate(96.26)">.</text><text class="v-cls-3" transform="translate(319.56 212.18) rotate(98.22)"> </text><text class="v-cls-3" transform="translate(318.2 221.59) rotate(100.22)">.</text><text class="v-cls-3" transform="matrix(-0.21, 0.98, -0.98, -0.21, 316.52, 230.94)"> </text><text class="v-cls-3" transform="translate(314.51 240.23) rotate(104.38)">.</text><text class="v-cls-3" transform="matrix(-0.28, 0.96, -0.96, -0.28, 312.15, 249.44)"> </text><text class="v-cls-3" transform="matrix(-0.32, 0.95, -0.95, -0.32, 309.45, 258.52)">.</text><text class="v-cls-3" transform="matrix(-0.36, 0.93, -0.93, -0.36, 306.4, 267.51)"> </text><text class="v-cls-3" transform="matrix(-0.4, 0.92, -0.92, -0.4, 302.99, 276.36)">.</text><text class="v-cls-3" transform="translate(299.22 285.03) rotate(116.08)"> </text><text class="v-cls-3" transform="translate(295.07 293.52) rotate(118.71)">.</text><text class="v-cls-3" transform="matrix(-0.52, 0.85, -0.85, -0.52, 290.55, 301.79)"> </text><text class="v-cls-3" transform="translate(285.63 309.85) rotate(124.34)">.</text><text class="v-cls-3" transform="matrix(-0.61, 0.79, -0.79, -0.61, 280.34, 317.62)"> </text><text class="v-cls-3" transform="translate(274.65 325.08) rotate(130.77)">.</text><text class="v-cls-3" transform="translate(268.56 332.17) rotate(134.42)"> </text><text class="v-cls-3" transform="translate(262.07 338.83) rotate(138.39)">.</text><text class="v-cls-3" transform="translate(255.14 345.01) rotate(142.73)"> </text><text class="v-cls-3" transform="matrix(-0.84, 0.54, -0.54, -0.84, 247.82, 350.61)">.</text><text class="v-cls-3" transform="translate(240.08 355.59) rotate(152.62)"> </text><text class="v-cls-3" transform="translate(231.96 359.83) rotate(158.19)">.</text><text class="v-cls-3" transform="translate(223.52 363.24) rotate(164.12)"> </text><text class="v-cls-3" transform="translate(214.79 365.77) rotate(170.37)">.</text><text class="v-cls-3" transform="matrix(-1, 0.06, -0.06, -1, 205.88, 367.32)"> </text><text class="v-cls-3" transform="translate(196.84 367.86) rotate(-176.7)">.</text><text class="v-cls-3" transform="matrix(-0.99, -0.17, 0.17, -0.99, 187.78, 367.38)"> </text><text class="v-cls-3" transform="translate(178.81 365.87) rotate(-164.01)">.</text><text class="v-cls-3" transform="translate(170.05 363.38) rotate(-158.08)"> </text><text class="v-cls-3" transform="matrix(-0.89, -0.46, 0.46, -0.89, 161.57, 360)">.</text><text class="v-cls-3" transform="matrix(-0.84, -0.54, 0.54, -0.84, 153.39, 355.77)"> </text><text class="v-cls-3" transform="translate(145.61 350.81) rotate(-142.66)">.</text><text class="v-cls-3" transform="translate(138.22 345.18) rotate(-138.31)"> </text><text class="v-cls-3" transform="matrix(-0.7, -0.72, 0.72, -0.7, 131.27, 339)">.</text><text class="v-cls-3" transform="matrix(-0.65, -0.76, 0.76, -0.65, 124.72, 332.31)"> </text><text class="v-cls-3" transform="matrix(-0.61, -0.79, 0.79, -0.61, 118.61, 325.23)">.</text><text class="v-cls-3" transform="matrix(-0.56, -0.83, 0.83, -0.56, 112.9, 317.76)"> </text><text class="v-cls-3" transform="matrix(-0.52, -0.85, 0.85, -0.52, 107.59, 309.98)">.</text><text class="v-cls-3" transform="translate(102.65 301.9) rotate(-118.66)"> </text><text class="v-cls-3" transform="translate(98.12 293.61) rotate(-116.03)">.</text><text class="v-cls-3" transform="translate(93.96 285.12) rotate(-113.51)"> </text><text class="v-cls-3" transform="matrix(-0.36, -0.93, 0.93, -0.36, 90.18, 276.43)">.</text><text class="v-cls-3" transform="translate(86.77 267.6) rotate(-108.76)"> </text><text class="v-cls-3" transform="translate(83.71 258.61) rotate(-106.52)">.</text><text class="v-cls-3" transform="matrix(-0.25, -0.97, 0.97, -0.25, 81.01, 249.5)"> </text><text class="v-cls-3" transform="matrix(-0.21, -0.98, 0.98, -0.21, 78.65, 240.3)">.</text><text class="v-cls-3" transform="matrix(-0.18, -0.98, 0.98, -0.18, 76.64, 231.02)"> </text><text class="v-cls-3" transform="translate(74.95 221.65) rotate(-98.19)">.</text><text class="v-cls-3" transform="translate(73.59 212.22) rotate(-96.23)"> </text><text class="v-cls-3" transform="translate(72.55 202.75) rotate(-94.32)">.</text><text class="v-cls-3" transform="matrix(-0.04, -1, 1, -0.04, 71.83, 193.25)">.</text><text class="v-cls-3" transform="translate(71.43 183.74) rotate(-90.58)"> </text><text class="v-cls-3" transform="matrix(0.03, -1, 1, 0.03, 71.31, 174.24)">.</text><text class="v-cls-3" transform="translate(71.6 164.79) rotate(-85.74)"> </text><text class="v-cls-3" transform="matrix(0.12, -0.99, 0.99, 0.12, 72.3, 155.34)">.</text><text class="v-cls-3" transform="translate(73.4 145.93) rotate(-80.88)"> </text><text class="v-cls-3" transform="translate(74.9 136.56) rotate(-78.55)">.</text><text class="v-cls-3" transform="matrix(0.24, -0.97, 0.97, 0.24, 76.78, 127.26)"> </text><text class="v-cls-3" transform="matrix(0.27, -0.96, 0.96, 0.27, 79.03, 118.03)">.</text><text class="v-cls-3" transform="translate(81.62 108.92) rotate(-71.96)"> </text><text class="v-cls-3" transform="matrix(0.34, -0.94, 0.94, 0.34, 84.57, 99.87)">.</text><text class="v-cls-3" transform="translate(87.84 90.92) rotate(-67.84)"> </text><text class="v-cls-3" transform="translate(91.42 82.12) rotate(-65.84)">.</text><text class="v-cls-3" transform="translate(95.32 73.43) rotate(-63.86)"> </text><text class="v-cls-3" transform="translate(96.17 64.35) rotate(-20.17)">.</text><text class="v-cls-3" transform="matrix(0.59, 0.81, -0.81, 0.59, 100.7, 59.39)"> </text><text class="v-cls-3" transform="translate(106.04 67.16) rotate(57.67)">.</text><text class="v-cls-3" transform="translate(111.24 75.37) rotate(57.67)"> </text><text class="v-cls-3" transform="matrix(0.53, 0.85, -0.85, 0.53, 116.45, 83.61)">.</text><text class="v-cls-3" transform="translate(121.63 91.8) rotate(57.67)"> </text><path id="violet-stem" class="v-cls-4" d="M200.23,418.42c-34.56,23-11.52,146.88-92.16,161.28,0,0-3.24,13.19,0,13,40.32-2.88,61.16-41.72,73.44-92.16,13-53.28,11.8-66.24,30.52-74.88s86.12,30.24,143.72-7.2,27.36-93.6,27.36-93.6,11.52,60.84-73.44,70S235.16,395.13,200.23,418.42Z"/><path id="violet-leaf" class="v-cls-4" d="M180.07,425.62C135.43,458.74,93.67,450.39,39,417-18.15,382.11,4.39,311.86,4.39,311.86c-6.32,0,23.59,67.71,106.6,86C158.47,408.34,180.07,425.62,180.07,425.62Z"/></svg>